<?xml version="1.0" encoding="utf-8"?>
<!-- Generator: Adobe Illustrator 24.3.0, SVG Export Plug-In . SVG Version: 6.00 Build 0)  -->
<svg version="1.0" id="Layer_1" xmlns="http://www.w3.org/2000/svg" xmlns:xlink="http://www.w3.org/1999/xlink" x="0px" y="0px"
	 viewBox="0 0 500 500" style="enable-background:new 0 0 500 500;" xml:space="preserve">
<style type="text/css">
	.st0{fill:#433B63;}
</style>
<g>
	<path class="st0" d="M173.7,97.9c7.2-4.9,14.5-9.5,22-13.9c3.8-2.1,7.5-4.3,11.4-6.1c3.9-1.8,7.8-3.6,11.9-4.3
		c4.1-0.7,8.4-0.7,12.7-0.3c4.3,0.4,8.5,1.1,12.7,1.9c8.1,1.7,16.2,4.1,23.9,7.2c-0.2,2.9-0.4,5.9-0.9,8.8c-0.2,1.6-0.5,3.2-0.9,4.7
		c-0.3,1-0.6,2-0.9,2.9c-2.6-2.1-5.4-3.8-8.4-5.3c-3.5-1.7-7.1-3-10.9-3.7c-3.8-0.7-7.7-0.8-11.6-0.4c-3.9,0.5-7.6,1.6-11.1,3.2
		c-7,3.2-13,8.3-18.1,13.8c-5,5.3-11.3,9.4-18.4,11.2l0,0c-0.5,0.1-0.9,0.6-0.9,1.1c0,0.7,0.5,1.3,1.2,1.3c3.9,0.3,7.7-0.1,11.5-0.6
		c1.9-0.3,3.8-0.7,5.6-1.2c-0.4,0.5-0.3,1.2,0.2,1.6c3.5,2.8,7.2,5,11.2,6.7c4,1.8,8.2,3,12.5,3.6c4.3,0.6,8.7,0.6,13-0.2
		c4.3-0.8,8.4-2.3,12.1-4.4c-4,1.4-8.1,2.5-12.3,2.9c-2.1,0.2-4.2,0.2-6.2,0.2c-2.1-0.1-4.1-0.3-6.2-0.7c-3.4-0.6-6.7-1.7-10-3
		c0.9,0.2,1.7,0.4,2.6,0.6c1.4,0.3,2.9,0.5,4.3,0.8c1.4,0.1,2.9,0.4,4.3,0.4c2.9,0.2,5.8,0.2,8.7-0.1c5.8-0.5,11.5-1.9,16.9-4.1
		c2.7-1.1,5.3-2.4,7.8-3.9c2.5-1.5,4.9-3.1,7.1-5.2c0.5-0.4,0.5-1.2,0.1-1.7l0,0c-5.2-5.8-12.1-9.9-19.7-11.6
		c-3.8-0.8-7.7-1.1-11.6-0.5c-3.9,0.5-7.6,1.8-11.1,3.5l-2.5,1.4c-0.8,0.5-1.6,1.1-2.4,1.6l-2.3,1.6c-0.8,0.5-1.5,1.1-2.3,1.5
		c-3.1,2-6.4,3.6-9.8,4.9c-3.4,1.3-7,2.2-10.6,2.8c-1.1,0.2-2.3,0.3-3.5,0.4c4.7-2.3,8.9-5.5,12.4-9.2c2.6-2.7,5.1-5.3,8.1-7.6
		c2.9-2.2,6-4.2,9.3-5.7c6.6-3.1,14.1-4,21.2-2.7c3.6,0.7,7,1.9,10.3,3.5c3.2,1.6,6.4,3.6,9.1,6l0,0c0.1,0.1,0.1,0.1,0.2,0.1
		c0.6,0.3,1.4,0.1,1.7-0.5c0.9-1.6,1.4-3.3,1.8-4.9c0.4-1.7,0.7-3.3,1-5c0.3-1.7,0.5-3.3,0.6-5c0.2-1.7,0.3-3.3,0.3-5
		c0-0.5-0.3-1-0.8-1.2c-8.2-3.3-16.6-5.9-25.2-7.7c-4.3-0.9-8.6-1.6-13-2c-4.4-0.4-8.9-0.4-13.3,0.4c-1.1,0.2-2.2,0.4-3.3,0.8
		c-1.1,0.3-2.2,0.7-3.2,1.1c-2.1,0.8-4.1,1.7-6.1,2.6c-4,1.9-7.8,4-11.6,6.2c-4.5,2.6-8.9,5.3-13.3,8.1c0.6-0.6,1.2-1.1,1.8-1.7
		c3.2-2.9,6.6-5.5,10.2-7.9c3.6-2.4,7.4-4.5,11.3-6.4c1.9-1,3.9-1.8,5.9-2.7c2-0.8,4-1.6,6.1-2.2c1-0.3,2-0.7,3.1-1l3.1-0.8
		c1-0.3,2.1-0.5,3.2-0.7c1.1-0.2,2.1-0.4,3.2-0.6c4.3-0.6,8.6-0.9,12.9-1c8.4-0.1,16.9,0.7,25.1,2.4c0.6,2.4,1.5,4.6,2.7,6.7
		c-0.5-2.6-0.6-5.3-0.4-7.9l0,0l0,0c0-0.5-0.4-1-0.9-1.1c-8.7-1.9-17.5-2.7-26.4-2.7c-4.4,0.1-8.9,0.4-13.3,1
		c-1.1,0.2-2.2,0.4-3.3,0.6c-1.1,0.2-2.2,0.4-3.3,0.7l-3.2,0.8c-1.1,0.3-2.1,0.7-3.2,1c-2.2,0.6-4.2,1.5-6.2,2.3
		c-2,0.9-4.1,1.7-6.1,2.7c-4,1.9-7.9,4.1-11.6,6.6c-3.7,2.5-7.2,5.2-10.5,8.2c-3.3,3-6.3,6.3-9.2,9.6c-0.4,0.4-0.4,1-0.1,1.5
		C172.4,98.1,173.2,98.3,173.7,97.9z M209.9,116.7c3.6-1.4,7-3,10.3-5.1c0.8-0.5,1.6-1.1,2.4-1.6l2.3-1.6c0.8-0.5,1.5-1,2.2-1.5
		l2.4-1.3c3.2-1.6,6.7-2.7,10.2-3.2c3.6-0.5,7.2-0.3,10.7,0.5c6.6,1.5,12.8,5,17.5,9.9c-1.8,1.5-3.7,2.8-5.7,4
		c-2.4,1.4-4.9,2.7-7.5,3.7c-5.2,2.1-10.6,3.5-16.2,3.9c-2.8,0.2-5.6,0.3-8.3,0.1c-1.4,0-2.8-0.3-4.2-0.4c-1.4-0.2-2.8-0.4-4.1-0.7
		c-5.5-1.1-10.8-3-15.9-5.3l0,0l0,0C207.3,117.6,208.6,117.1,209.9,116.7z"/>
	<path class="st0" d="M296.6,138.4c0.6-1,1.5-2,2.2-2.7l0.1-0.1c0.5-0.5,0.6-1.2,0.1-1.8c-0.5-0.5-1.2-0.6-1.8-0.1
		c-1.2,1-2,2.1-2.8,3.2c-0.8,1.2-1.4,2.4-1.9,3.8c-0.9,2.7-1.2,5.5-0.8,8.3l0.1,1c0.1,0.3,0.2,0.7,0.2,1c0.2,0.7,0.3,1.4,0.6,2
		c0.2,0.6,0.5,1.3,0.7,1.9c0.3,0.6,0.6,1.3,1,1.9c0.7,1.2,1.7,2.4,2.9,3.3c1.2,0.9,2.5,1.6,4,2l0-0.2c2.4,0.4,4.8,0,7-0.7
		c2.2-0.7,4.2-1.7,6-3c-2,0.9-4.1,1.5-6.2,1.8c-2.1,0.3-4.2,0.2-6.1-0.5l0-0.2c-2.2-0.5-4-2-5.2-4c-0.3-0.5-0.6-1-0.8-1.6
		c-0.2-0.6-0.4-1.1-0.7-1.7c-0.2-0.6-0.4-1.2-0.5-1.7c-0.1-0.3-0.2-0.6-0.2-0.9l-0.1-0.9c-0.4-2.4-0.2-4.8,0.6-7.1
		C295.5,140.5,296,139.4,296.6,138.4z"/>
	<path class="st0" d="M309.6,151.6C309.6,151.7,309.7,151.7,309.6,151.6c4.5,0,11.6-14.3,12-16.7c0.1-0.4-0.1-0.9-0.4-1.2
		c-0.3-0.3-0.8-0.4-1.2-0.3c-0.6,0.2-14.2,4.6-13,14.6C307.3,151,308.6,151.6,309.6,151.6z M318.3,136.9c-2,4.4-6.7,11.8-8.5,12.2
		c-0.1-0.1-0.2-0.5-0.3-1.3C308.8,142.2,314.7,138.6,318.3,136.9z"/>
	<path class="st0" d="M284.4,205c0,0.1,0,0.2-0.1,0.2c0,0.1,0,0.2,0,0.2c0,0.1,0,0.2,0,0.2c0,0.1,0,0.2,0.1,0.2c0,0,0,0.1,0,0.1
		c0,0,0.1,0.1,0.1,0.1c0,0,0,0.1,0.1,0.1c0.1,0.1,0.2,0.2,0.3,0.3c0,0,0,0,0,0c0.8,0.4,18.3,8.7,46.8,8.7c1.6,0,3.2,0,4.8-0.1
		c32.3-1,32.3-18.8,32.3-19.5c0,0,0-0.1,0-0.1c0-0.1,0-0.2-0.1-0.3c0,0,0-0.1,0-0.1c-8.2-17.5-17-27.5-26.2-29.7
		c-5.4-1.3-9.2,0.6-10.6,1.5c-25-8.8-46.6,36.1-47.5,38C284.4,204.9,284.4,204.9,284.4,205z M336.6,212.6
		c-24.9,0.8-42.4-5.1-48.3-7.4l8.1-5c4.4-2.7,9.3-4.7,14.3-6c0,0,0,0,0,0c3.9-1,7.9-1.5,12-1.5H339c2.7,0,5.5,0.2,8.2,0.7l19.2,3.2
		C365.9,200.2,362.2,211.8,336.6,212.6z M315.8,190.7l1-0.7c3.9-2.8,9-4.4,14.3-4.4c4.9,0,9.7,1.4,13.5,3.8l2,1.3
		c-2.5-0.4-5-0.6-7.6-0.6h-16.3C320.4,190.3,318.1,190.4,315.8,190.7z M331.7,169.4c0.4,0.2,0.9,0.1,1.2-0.2c0,0,3.5-2.7,9.1-1.4
		c5.6,1.3,14.2,7,23.5,26.2l-12.9-2.1l-6.8-4.4c-4.2-2.7-9.5-4.2-14.9-4.2c-5.8,0-11.4,1.7-15.8,4.8l-5.4,3.8
		c-5.2,1.3-10.2,3.4-14.8,6.2l-6.3,3.9C294.7,191.1,312.7,162,331.7,169.4z"/>
	<path class="st0" d="M464.7,145.8c-2.2,3.1-4.7,5.8-7.7,8.2c-3,2.3-6.3,4.3-9.5,6.2c-6.1,3.7-12.8,7.4-16.8,13.5
		c-3,4.5-4.3,10-7.4,14.5c-0.1,0.2-0.2,0.4-0.1,0.6c-0.8,0.7-1.6,1.3-2.4,1.9c-1.7,1.4-3.3,2.9-4.8,4.5c-2.4,2.6-4.6,5.4-6.6,8.4
		c0.1-0.3,0.2-0.7,0.2-1c2.4-9.9,4.3-20.1,4.7-30.3c0-0.4,0-0.8,0-1.2c1.6-5.4,3.7-10.6,6.9-15.4c3.3-5,7.6-9.2,12.6-12.4
		c3-1.9,6.2-3.5,9.7-4.3c0,0.1,0,0.2,0.1,0.4c0.5,1.1,1.3,2,2.3,2.5c1.1,0.6,2.3,0.7,3.5,0.5c2-0.3,3.7-1.8,4.2-3.7
		c0.5-1.9-0.3-4.1-1.8-5.4c-1.6-1.4-3.8-1.5-5.7-0.6c-1,0.5-1.9,1.3-2.4,2.4c-0.2,0.5-0.4,1-0.4,1.6c-0.1,0.6,0.1,1.1,0.3,1.6
		c0,0.1,0.1,0.1,0.1,0.1c-0.1,0-0.1,0.1-0.1,0.1c0,0-0.1,0-0.1,0c-6.5,0.5-12.3,4.2-17.1,8.5c-2.5,2.3-4.7,4.8-6.6,7.6
		c0.1-0.7,0.3-1.3,0.4-1.9c0.4-1.8,0.9-3.6,1.6-5.3c1.3-3.5,2.9-6.8,5-9.9c1-1.5,2-3,3.2-4.3c0,0,0,0,0,0c1.8,1.7,4.4,1.9,6.4,0.7
		c1.7-1,2.8-2.9,2.6-4.9c-0.2-2.1-1.8-3.8-3.7-4.6c-2.1-0.8-4.3,0.1-5.7,1.8c-0.7,0.9-1.1,1.9-1.2,3c0,0.5,0,1.1,0.2,1.6
		c0.2,0.6,0.5,1,1,1.4c0,0,0,0,0,0c-5.1,5.4-8.7,12.1-10.6,19.4c-0.4,1.8-0.8,3.5-0.9,5.3c-0.9,1.5-1.8,3.1-2.5,4.7
		c-0.6,1.2-1.1,2.5-1.6,3.7c-0.1-2.8-0.4-5.5-0.7-8.2c0.3-2.7,0.3-5.5,0.4-8.2c0.1-2.6,0.3-5.2,0.6-7.7c0.5-4.1,1.5-8.1,2.7-12
		c0.6-1.9,1.3-3.7,2-5.6c0.5-0.7,0.9-1.4,1.5-2.1c1.3-1.7,2.8-3.3,4.3-4.9c3-3.1,6.3-6,9.5-8.8c0,0,0.1-0.1,0.1-0.1
		c0.1-0.1,0.2-0.2,0.4-0.3c0.8-0.1,1.5-0.4,2.2-0.7c0.7-0.3,1.4-0.7,2.2-1.1c1.5-0.8,2.9-1.7,4.3-2.6c2.8-2,5.4-4.3,7.8-6.8
		c4.8-5.1,8.6-11,11-17.6c1.2-3.5,2-7.2,2.1-10.9c0-0.9-1.2-1.2-1.7-0.5c-3.4,5.6-7.9,10.4-12.1,15.4c-2,2.4-4,4.8-5.7,7.4
		c-1.9,2.9-3.7,6-5.6,8.9c-1,1.7-2.1,3.3-3.3,4.9c-1.1,1.4-2.1,2.9-3.2,4.3c-3.1,2.4-6.3,4.8-9.1,7.6c-1,1-1.9,2-2.8,3
		c0.1-0.3,0.2-0.6,0.3-0.9c2.3-6.1,4.7-12.1,6.7-18.3c2.2-6.6,3.8-13.4,4.4-20.4c0,0,0,0,0,0c2.1,0.1,4-1.3,4.5-3.3
		c0.5-1.8-0.2-3.8-1.8-4.7c-1.3-0.8-3.1-0.8-4.4-0.1c-1.5,0.8-2.2,2.4-2.1,4c0.1,0.9,0.4,1.7,0.9,2.4c0.3,0.3,0.6,0.6,1,0.8
		c0.4,0.2,0.8,0.3,1.3,0.3c0,0.1,0.1,0.2,0.2,0.3c-0.9,6.3-2.7,12.5-4.7,18.5c-0.1,0.4-0.3,0.7-0.4,1.1c0.1-0.8,0.2-1.5,0.2-2.3
		c0.1-2.3,0.1-4.5-0.1-6.8c-0.3-4.6-1.1-9.1-2.1-13.6c-0.6-2.6-1.2-5.2-1.9-7.7c0-0.1-0.1-0.2-0.2-0.2c0,0,0,0,0.1,0
		c0.1,0,0.1-0.1,0.1-0.2c0.2,0.2,0.6,0.4,0.9,0.1c2-1.3,2.8-3.8,2.1-6.1c-0.6-1.9-2.2-3.4-4.3-3.7c-2-0.3-4.1,0.9-5.2,2.6
		c-1.2,1.9-0.9,4.2,0.4,5.9c0.7,0.9,1.6,1.5,2.6,1.8c1,0.3,1.9,0.2,2.8-0.2c0,0,0,0.1,0,0.1c1.9,8.9,3.9,17.8,3.7,27
		c0,1.2-0.1,2.5-0.2,3.7c-0.1,1.1-0.3,2.3-0.4,3.4c-1.7,4.6-3.6,9.1-5.4,13.7c-1.5,3.8-3.1,7.7-4.5,11.6c-1.4,3.9-2.4,7.9-3,12
		c-0.4,2.7-0.7,5.4-0.8,8.2c-0.3-1.1-0.6-2.2-1-3.3c-0.3-1-0.6-1.9-1-2.8c-0.1-0.4-0.1-0.9-0.2-1.3c-0.2-1.8-0.5-3.6-0.5-5.4
		c-0.2-3.6-0.1-7.3,0.3-10.9c0.1-1.2,0.2-2.4,0.4-3.6c0.3-0.1,0.5-0.3,0.6-0.6c1.8-6.4,3.2-13,3.9-19.7c0.3-3.2,0.4-6.4-0.3-9.5
		c-0.6-2.9-1.7-5.7-2.8-8.5c-1-2.4-2-4.9-2.8-7.4c-0.1-0.8-0.2-1.6-0.3-2.5c-0.1-0.6-1-0.4-1.1,0.1c-0.1,1.4-0.3,2.8-0.4,4.2
		c-0.1,1.5-0.3,3-0.4,4.5c-0.4,3.1-0.8,6.1-1.1,9.2c-0.3,2.8-0.5,5.6-0.1,8.4c0.4,3.2,1.6,6.2,2.4,9.2c0.5,1.9,0.9,3.8,1,5.7
		c0,2-0.3,4.1,0.2,6.1c0,0.2,0.1,0.3,0.2,0.4c-1.1,5.2-1.7,10.6-1.3,15.9c-2.3-5.2-5.2-10.1-8.5-14.8c-1.7-2.4-3.5-4.7-5.4-6.9
		c0-0.1,0.1-0.1,0-0.2c-0.4-2.1-1.3-4.1-2.2-6.1c-0.9-2-1.9-3.9-3-5.7c-2.1-3.6-4.4-7-7-10.2c0.2,0,0.3,0,0.5-0.1
		c2-1.3,2.8-3.8,2.1-6.1c-0.6-1.9-2.2-3.4-4.3-3.7c-2-0.3-4.1,0.9-5.2,2.6c-1.2,1.9-0.9,4.2,0.4,5.9c0.7,0.9,1.6,1.5,2.6,1.8
		c0.5,0.2,1.1,0.2,1.7,0.2c0.6-0.1,1.1-0.3,1.6-0.6c0.1,0,0.1-0.1,0.1-0.1c2.6,3.4,5,7,6.9,10.9c1,1.9,1.8,3.8,2.7,5.8
		c0.7,1.5,1.2,3.1,1.9,4.6c-0.6-0.7-1.2-1.3-1.8-1.9c-3.2-3.3-6.6-6.4-10.4-9c-0.7-0.5-1.4-0.9-2.1-1.3c1.2-1.5,1.4-3.5,0.4-5.2
		c-0.8-1.4-2.4-2.3-4-2.1c-1.7,0.2-3.2,1.4-3.7,3c-0.6,1.7,0.1,3.5,1.5,4.6c0.7,0.6,1.6,0.9,2.5,0.9c0.4,0,0.9,0,1.3-0.2
		c0.4-0.1,0.7-0.4,1-0.7c3.9,2.4,7.3,5.5,10.5,8.8c0.2,0.2,0.3,0.4,0.5,0.5c-1.6-0.9-3.3-1.7-4.9-2.4c-3.9-1.6-8.1-2.7-12.3-3.3
		c0-0.1,0-0.2,0-0.3c-0.1-2.5-2-4.6-4.5-5c-2.2-0.4-4.6,0.6-5.5,2.7c-0.8,1.7-0.7,3.8,0.4,5.4c1.1,1.7,3.2,2.4,5.2,2.1
		c1.1-0.2,2.1-0.6,2.9-1.4c0.8-0.8,1.2-1.8,1.2-3c0-0.1,0-0.1-0.1-0.2c0.1,0,0.2,0,0.2-0.1c0,0,0,0,0,0c4.2,0.6,8.4,1.8,12.2,3.6
		c1.9,0.9,3.7,1.9,5.5,3.1c1,0.6,1.9,1.3,2.8,2c1.6,1.9,3.2,3.8,4.6,5.8c5.1,6.8,9.2,14.4,12,22.4c3,8.6,4.5,17.5,4.4,26.6
		c0,1.7-0.1,3.3-0.2,5c-0.6-2.2-1.3-4.4-2.2-6.5c-2-5-4.7-9.5-8-13.7c-1.2-1.5-2.4-2.9-3.7-4.3c0-0.2,0-0.3-0.2-0.5
		c-0.8-1-1.7-1.9-2.7-2.7c-1.9-3.1-2.6-6.8-4.2-10c-1.1-2.2-2.7-4.1-4.5-5.9c-1.9-2-3.8-3.9-5.8-5.8c-2.3-2.3-4.5-4.6-6.9-6.9
		c-0.9-0.9-2,0.4-1.3,1.3c3.4,4.3,4.4,9.8,7.2,14.5c2.6,4.4,6.6,7.8,10.5,11c1.1,0.9,2.3,1.9,3.4,2.8c1.1,0.9,2.2,1.9,3.4,2.8
		c0.2,0.1,0.3,0.1,0.4,0.1c2.7,3.4,5.2,6.9,7.3,10.6c2.4,4.3,4.1,8.9,5.4,13.6c0.5,2,0.9,4,1.2,6.1c-0.7,6.3-1.9,12.5-3.3,18.6
		c-1.5,6.5-3.3,12.9-5.3,19.2c-0.1-1.4-0.1-2.8-0.2-4.2c-0.3-4.1-0.9-8.1-1.7-12.1c-0.4-1.7-0.9-3.3-1.5-4.9c0.1-0.1,0.1-0.2,0-0.4
		c-0.1-0.5-0.3-0.9-0.5-1.4c-0.2-3.2,0.2-6.5,0.4-9.7c0.1-1.9,0.1-3.7-0.2-5.5c-0.3-1.9-0.8-3.7-1.3-5.5c-0.5-1.8-1.1-3.6-2.1-5.2
		c-0.9-1.5-2.1-2.9-3.2-4.3c-2.1-2.8-4.1-5.7-6-8.7c-2.1-3.5-3.8-7.1-5.2-10.9c-0.3-0.9-1.7-0.8-1.8,0.2c-0.1,3.2,0.8,6.3,1.3,9.4
		c0.1,0.8,0.3,1.5,0.4,2.3c-9.3-19-23-37.7-43.2-53.5c-9.7-7.6-18-14.5-25.2-20.7c0,0-0.1-0.1-0.1-0.1
		c-48.9-42.2-45.4-54.4-45.3-54.7c0.3-0.6,0.1-1.3-0.5-1.6c-0.6-0.3-1.4-0.1-1.7,0.5c-0.8,1.4-5,13.7,45.3,57.3
		c-0.1,0.8,0,1.4,0.1,2.2c0.1,0.9,0.3,1.8,0.5,2.7c0.5,1.7,1.2,3.4,2,4.9c1.6,3.1,3.8,5.9,6.1,8.5c2.3,2.6,4.9,4.8,7.6,7
		c1.3,1.1,2.7,2,4.1,3.1l2,1.4c0.6,0.5,1.3,1,1.9,1.5c2.4,2.1,4.5,4.5,5.4,7.4c0.9,2.8,0.4,5.9-0.8,8.8c-1.2,3-3,5.9-4.3,9.1
		c-0.7,1.6-1.2,3.3-1.4,5c-0.2,1.7-0.1,3.6,0.6,5.2c0.1-3.4,1.4-6.4,3-9.2c1.5-2.9,3.3-5.7,4.7-9c0.1-0.2,0.1-0.3,0.2-0.5
		c1,1.2,2,2.6,2.7,4c0.5,1,0.9,2.1,1.1,3.1c0.3,1.1,0.3,2.2,0.2,3.3c-0.2,2.2-1,4.3-2.3,6.3c-1.3,2-2.9,3.7-4.8,5.4
		c2.4-0.8,4.6-2.3,6.4-4.2c0.9-1,1.6-2.1,2.2-3.3c0.6-1.2,1-2.5,1.2-3.9c0.4-2.7-0.2-5.6-1.4-8c-0.6-1.2-1.3-2.3-2.2-3.4
		c-0.7-0.8-1.3-1.5-2.1-2.1c0.2-0.6,0.3-1.3,0.4-1.9c0.3-1.8,0.2-3.8-0.4-5.6c-1.1-3.7-3.6-6.5-6.2-8.8c-0.7-0.6-1.3-1.1-2-1.7
		l-2.1-1.5c-1.3-1-2.7-1.9-4-2.9l-1.9-1.6c-0.6-0.5-1.3-1-1.9-1.6l-1.8-1.7c-0.6-0.6-1.1-1.2-1.7-1.8c-2.2-2.4-4.3-4.9-5.8-7.7
		c-0.8-1.4-1.5-2.8-1.9-4.3c-0.2-0.5-0.3-1.1-0.4-1.6c6.8,5.8,14.4,12.1,23.2,18.9c22.2,17.5,37.4,39.1,46.9,62.4
		c0.8,3.4,1.6,6.8,2.8,10.1l-9.4,51.9c-3,16.3-14.3,29.3-29.7,34.5c0,0-0.1,0-0.1,0c-1.9,0.6-3.8,1.2-5.8,1.5
		c-32.7,6.4-93.3,16.7-131.6,14.5c-22-1.3-33.4-15.5-39.3-28.8c1.6-0.9,2.9-2.2,3.8-3.8c2-3.5,2.2-6.9,0.5-9.7
		c-1.8-3.1-5.6-5-9.9-5.1c-2.1-11.4-2.1-23.1-0.5-33.7c0.7,0.2,1.4,0.4,2.2,0.6c26.4,7,53.8,14.1,61.9-0.9c6-11.1,2.1-24.1-9.8-33.3
		c-11.5-8.8-29.8-12.8-42.9-0.5c-6.3,5.9-11.1,17.1-13.4,31c-19-5-36.5-9-46.4-4.4c-9.5,4.4-14.9,12.2-15.1,21.9c0,0.3,0,0.6,0,0.9
		c-0.4,0.4-0.8,0.8-1.2,1.2c-0.4,0.3-0.9,0.7-1.4,0.9c-0.5,0.1-1.1,0-1.7-0.1c-1.1-0.3-2.2-0.6-3.4-0.8c-1.2-0.1-2.4-0.1-3.5,0.3
		c-0.4,0.1-0.8,0.3-1.1,0.5c-0.6-0.6-1.5-1.1-2.3-1.2c-1-0.2-2.1,0.1-2.9,0.7c-1.9,1.4-2.8,3.9-3,6.2c-0.3,3.2,0.6,6.3,2.1,9.1
		c-0.6-0.5-1.2-1.1-1.8-1.7c-1-1-1.9-1.9-2.9-2.9c-0.9-0.9-1.8-1.9-2.7-2.9c-0.8-1-1.7-2-2.5-3c-0.8-1-1.5-2-2.1-3.1
		c-0.6-1.1-1.2-2.2-1.7-3.4c-0.1-0.3-0.2-0.6-0.3-1c0-0.1,0-0.2,0-0.4c-0.2-0.6-0.3-1.1-0.5-1.7c0-0.2,0-0.4,0.1-0.5
		c0.1-0.5,0.2-0.9,0.3-1.4c0.3-0.9,0.6-2-0.1-2.8c-0.3-0.3-0.7-0.2-1,0c-0.4,0.3-0.6,0.9-0.7,1.4c-0.1,0.5-0.2,1.1-0.2,1.6
		c0,0.5,0,1,0.1,1.4c0,0.3-0.1,0.6-0.1,0.8c-0.2,0-0.3,0-0.5,0c-0.5,0-1,0-1.5,0.1c-0.5,0.1-1.1,0.3-1.5,0.7
		c-0.2,0.2-0.4,0.5-0.3,0.8c0,0.6,0.5,0.9,1,1c0.9,0.2,1.7-0.1,2.5-0.3c0.2-0.1,0.4-0.1,0.6-0.2c0.2,0,0.2-0.1,0.3-0.1c0,0,0,0,0,0
		c0,0,0,0.1,0,0.1c0.1,0.2,0.1,0.5,0.2,0.7c0.1,0.4,0.3,0.8,0.5,1.2c0.4,0.8,0.8,1.6,1.3,2.4c0.9,1.7,2,3.1,3.2,4.5
		c1.2,1.4,2.3,2.8,3.6,4.1c1.4,1.4,2.7,2.7,4.1,4.1c1.4,1.4,2.9,2.6,4.2,4c0.7,0.7,1.4,1.3,2.1,2c0.3,0.3,0.7,0.6,1.1,0.9
		c-0.2,0.2-0.3,0.3-0.5,0.5c-0.9,1.1-1.6,2.3-2.1,3.6c-0.3-0.4-0.6-0.8-0.9-1.1c-0.7-0.8-1.3-1.6-2.1-2.2c-0.8-0.7-1.7-1.2-2.7-1.6
		c-1-0.4-2.1-0.7-3.2-1.1c-0.6-0.2-1.1-0.5-1.7-0.6c-0.7-0.1-1.3,0.2-1.4,0.9c-0.3,0.8-0.4,1.6-0.4,2.5c0,0.9,0.1,1.8,0.3,2.7
		c0.4,1.9,1.5,3.7,2.9,5c0.4,0.3,0.7,0.6,1.1,0.9c-0.3,0.2-0.7,0.3-1,0.5c-0.7,0.4-1.4,1-2,1.6c-1.3,1.5-2.2,3.3-2.7,5.2
		c-0.5,1.8-1,4,0,5.8c0.2,0.3,0.5,0.7,0.9,0.7c0.6,0.1,1-0.2,1.3-0.6c0.3-0.4,0.7-0.7,1-1.1c0.4-0.4,0.8-0.8,1.1-1.1
		c0.9-0.8,1.7-1.6,2.7-2.3c0.3-0.2,0.6-0.5,0.9-0.7c0,0.2-0.1,0.5-0.1,0.7c-0.2,1.1-0.2,2.1-0.1,3.2c0.1,1.1,0.3,2.1,0.7,3.2
		c0.2,0.5,0.3,0.9,0.5,1.4c0.1,0.4,0.2,0.8,0.3,1.2c0.1,0.4,0.3,0.7,0.6,0.9c0.5,0.3,1,0.1,1.5-0.2c0.8-0.4,1.4-1.1,1.9-1.8
		c1.2-1.5,2.6-3.1,2.8-5.1c0.2-1.2,0-2.4-0.1-3.6c0,0,0,0,0-0.1c0.6,0.6,1.3,1.1,2.1,1.5c0.8,0.4,1.7,0.6,2.6,0.7
		c0.6,0.1,1.3,0.3,1.9,0.3c0.8,0,1.7-0.3,1.8-1.2c0-0.4-0.2-0.8-0.3-1.1c-0.1-0.5-0.3-1-0.4-1.4c-0.5-1.7-1.4-3.3-2.4-4.7
		c-0.3-0.4-0.7-0.8-1-1.2c1.4,0.5,2.7,1.2,3.9,2c1,0.6,2,1.3,2.9,2c0.4,0.3,0.6,0.7,1,1c0.3,0.2,0.6,0.4,0.9,0.4
		c0.2,0.3,0.3,0.6,0.5,0.9c0.5,1,1.1,1.9,1.5,2.9c0.5,1,0.8,2,1.3,3c0.9,2.1,1.8,4.1,2.5,6.2c0.8,2.2,1.3,4.4,1.9,6.7
		c0.6,2.3,1.1,4.6,1.6,6.8c0.2,1.1,0.6,2.2,0.8,3.4c0,0.1,0.1,0.3,0.1,0.4c-0.5-1.4-1-2.9-1.6-4.2c-0.6-1.3-1.3-2.6-2.1-3.8
		c-0.8-1.2-1.7-2.3-2.7-3.2c-2-1.7-4.7-2.7-7.3-3.1c-1.3-0.2-2.6-0.3-3.9,0c-1.1,0.3-2.1,0.8-2.9,1.6c-1.5,1.3-2.5,3-3.1,4.9
		c-0.6,1.8-0.7,3.9-0.1,5.7c0.6,1.9,2,3.7,3.8,4.4c1.9,0.8,4.3,0.1,5.6-1.6c1.3-1.7,1.1-5.2-1.4-5.6c-0.6-0.1-1.2,0-1.9,0.1
		c-0.7,0.2-0.4,1.3,0.3,1.1c0.5-0.1,1-0.2,1.5-0.1c0.5,0.1,0.8,0.5,1,0.9c0.3,0.8,0.3,1.9-0.2,2.6c-0.9,1.5-2.9,2.1-4.5,1.4
		c-1.5-0.6-2.7-2.2-3.1-3.7c-0.5-1.6-0.4-3.4,0.1-5c0.5-1.6,1.4-3.2,2.7-4.3c0.7-0.6,1.5-1.1,2.5-1.4c1.1-0.3,2.3-0.2,3.4-0.1
		c2.3,0.4,4.8,1.2,6.6,2.6c2.1,1.6,3.4,4,4.5,6.3c1.2,2.5,2.1,5.2,2.9,7.9c0.7,2.4,1.4,4.9,2,7.4c0.1,0.6,0.2,1.3,0.2,1.9
		c0.1,1.2,0.1,2.3,0.2,3.5c0.1,1.2,0.2,2.3,0.1,3.5c-0.1,1.1-0.3,2.3-0.4,3.4c-0.1,0.5-0.2,1-0.1,1.5c0,0,0,0,0,0.1
		c-0.7,0.7-1.4,1.5-2,2.2c-0.1,0.2-0.3,0.3-0.4,0.5c-0.3-0.5-0.4-1.1-0.6-1.7c-0.4-1.1-0.8-2.2-1.3-3.3c-0.4-1-0.9-2.1-1.5-3
		c-0.7-1-1.6-1.8-2.6-2.5c-2.1-1.5-4.5-2.5-6.8-3.4c-2.5-0.9-4.9-2-7.5-2.5c-1.4-0.2-2.8-0.4-4.2-0.7c-0.8-0.2-1.8-0.3-2.5,0.3
		c-0.6,0.5-0.6,1.4-0.6,2.1c0,1.2,0,2.4,0.1,3.6c0.2,2.6,0.5,5.2,1.6,7.5c0.8,1.9,2.2,3.5,3.7,4.8c1.7,1.4,3.7,2.5,5.6,3.6
		c0.1,0.1,0.3,0.1,0.4,0.2c-1.8,0.1-3.5,0.4-5.2,0.8c-2.5,0.7-4.9,1.7-7.2,2.9c-2.3,1.2-4.5,2.4-6.5,4c-0.9,0.7-1.8,1.5-2.6,2.4
		c-0.8,0.8-1.6,1.9-1.6,3.2c0,0.3,0.1,0.6,0.4,0.7c1.1,0.5,2,1.2,3,1.8c1,0.7,2,1.2,3.2,1.6c2.4,0.8,4.9,1.2,7.4,1.4
		c2.3,0.2,4.6,0.4,6.9-0.2c1.8-0.5,3.5-1.3,5-2.4c-0.2,0.3-0.4,0.7-0.6,1c-1.5,2.7-2.4,5.7-2.8,8.7c-0.4,3.2,0,6.4,0.3,9.5
		c0.2,1.7,0.4,3.3,0.7,5c0.2,1.1,0.4,2.1,0.6,3.2c0.2,1.5,0.4,3.2,1.3,4.4c0.5,0.7,1.3,1.1,2.1,0.9c1.2-0.3,2.2-1.3,2.9-2.1
		c0.8-0.9,1.5-1.9,2.3-2.9c0.9-1.2,1.9-2.3,2.9-3.5c2-2.3,3.8-4.7,5.3-7.4c1.2-2,2.4-4.2,3.1-6.4c0.2,1.4,0.3,2.9,0.5,4.3
		c0.2,2.2,0.4,4.4,0.6,6.6c0.2,2.2,0.4,4.4,0.5,6.6c0.1,2.2-0.1,4.4-0.3,6.6c-0.1,2.2-0.2,4.3-0.5,6.5c-0.6,4.3-1.7,8.5-2.6,12.7
		c-0.5,2.4-0.9,4.8-1.3,7.2c-0.2,1.2-0.4,2.3-0.8,3.5c-0.3,1.1-0.6,2.3-0.7,3.4c0,0.1,0,0.2,0,0.3l-1.9,2c-0.5,0.5-0.5,1.3,0,1.8
		c0.2,0.2,0.6,0.3,0.9,0.3c0.3,0,0.7-0.1,0.9-0.4l22.2-23.3c14.4-15.1,23.9-34,27.7-54.2c9.1,14.5,23.5,29.1,46.1,38.5
		c33.1,13.8,51.5,42.2,61.2,63.5c10.5,23.2,13.1,43.5,13.1,43.7c0.1,0.6,0.6,1.1,1.2,1.1c0.1,0,0.1,0,0.2,0c0.7-0.1,1.2-0.7,1.1-1.4
		c0-0.1-0.4-3.4-1.6-8.9c1.9-3.8,3.2-8,4.5-12.1c0.5-1.5,0.9-3.1,1.4-4.6c0.1-0.2,0.2-0.5,0.3-0.7c0.4-0.9,0.9-1.7,1.4-2.6
		c1.1-1.9,2.2-3.7,3.5-5.4c2.5-3.6,5.4-7,8.7-9.9c0.9-0.8,1.9-1.7,2.7-2.6c0.2,0,0.4-0.1,0.6-0.3c1.6-1.2,3.2-2.2,5-3.2
		c8.4,31.7,23,46.9,23.2,47.2c0.2,0.2,0.6,0.4,0.9,0.4c0.3,0,0.6-0.1,0.9-0.4c0.5-0.5,0.5-1.3,0-1.8c-0.2-0.2-14.6-15.2-22.7-46.6
		c3.5-1.7,7.2-3.2,10.6-5.1c2-1.1,3.8-2.3,5.7-3.5c1.8-1.1,3.6-2.2,5.2-3.5c3.4-2.8,5.2-6.9,6.8-10.9c1.8-4.4,3.3-8.9,4.8-13.4
		c0.4-0.6,0.8-1.2,1.1-1.9c0.2-0.4,0.1-0.7-0.2-0.9c0.8-0.6,1.6-1.1,2.3-1.8c2.2,1.8,3.9,4.1,5.2,6.5c4.6,8.6,4.2,22.5-11.9,33.7
		c-0.6,0.4-0.7,1.2-0.3,1.7c0.2,0.3,0.6,0.5,1,0.5c0.2,0,0.5-0.1,0.7-0.2c17.4-12.1,17.8-27.5,12.7-36.9c-1.4-2.5-3.2-4.9-5.5-6.9
		c7.6-6.5,15.9-16.3,24.2-30.9c18.4-32.2,28.1-75,26.4-115.6c0.3,0,0.6-0.1,0.7-0.4c1.2-2.3,2.1-4.6,3-7c0.9-2.4,1.7-4.7,2.5-7.1
		c0.6-1.9,1.2-3.8,1.8-5.7c0.2-0.5,0.5-1,0.7-1.4c0.4-0.9,0.9-1.7,1.4-2.6c1.1-1.9,2.2-3.7,3.5-5.4c2.5-3.6,5.4-7,8.7-9.9
		c0.9-0.8,1.9-1.7,2.7-2.6c0.2,0,0.4-0.1,0.6-0.3c5.3-4.1,11.9-6.1,17.8-9.4c2-1.1,3.8-2.3,5.7-3.5c1.8-1.1,3.6-2.2,5.2-3.5
		c3.4-2.8,5.2-6.9,6.8-10.9c1.8-4.4,3.4-8.9,4.8-13.4c0.4-0.6,0.8-1.2,1.1-1.9C466.5,145.7,465.3,145,464.7,145.8z M446.1,133.8
		c1.4-0.9,3.2-1.1,4.6-0.1c1.2,0.9,2,2.5,1.8,4c-0.2,1.5-1.3,2.6-2.7,3c-2,0.5-4-0.4-4.8-2.3c-0.1-0.3-0.5-0.4-0.8-0.4
		c0,0,0,0,0-0.1C444,136.4,444.6,134.8,446.1,133.8z M430.2,127.3c0.9-1.4,2.6-2.4,4.2-2c1.6,0.4,3,1.6,3.4,3.2
		c0.3,1.4-0.3,2.8-1.4,3.7c-1.5,1.2-3.8,1.3-5.2-0.1c-0.2-0.2-0.4-0.2-0.6-0.2c-0.1-0.1-0.3-0.1-0.5,0
		C429.4,130.3,429.3,128.7,430.2,127.3z M439.8,101.1c2-3,3.8-6.1,5.8-9.1c3.5-5.5,8.1-10.3,12.3-15.3c1.5-1.8,3-3.6,4.4-5.6
		c-0.7,5.2-2.7,10.2-5.3,14.8c-3.4,5.8-8,11-13.3,15c-1.5,1.1-3,2.1-4.6,3c-0.6,0.3-1.2,0.6-1.8,0.9
		C438.1,103.6,439,102.3,439.8,101.1z M429.7,75.4c-0.2-1.1,0.2-2.5,1.2-3.1c0.9-0.7,2.2-0.7,3.2-0.3c1.1,0.4,1.9,1.6,1.7,2.9
		c-0.2,1.6-1.6,2.9-3.3,2.8c-0.3,0-0.6,0.2-0.7,0.5C430.8,77.5,429.9,76.6,429.7,75.4z M418.2,66.3c-1.2-1.2-1.7-3.1-0.9-4.6
		c0.7-1.4,2.2-2.4,3.7-2.5c1.5,0,2.8,0.9,3.4,2.2c0.8,1.7,0.4,3.9-1.3,5c-0.4,0.3-0.4,0.7-0.3,1c0,0-0.1,0-0.1,0
		C421.1,67.8,419.4,67.5,418.2,66.3z M406.7,99.3c-0.4-2.7-0.2-5.5,0-8.1c0.3-3,0.8-6.1,1.1-9.1c0.2-1.7,0.4-3.3,0.5-5
		c0-0.1,0-0.2,0-0.3c1.2,4.3,3,8.4,3.9,12.7c1.4,6.3,0,12.9-1.2,19.1c-0.3,1.7-0.7,3.4-1.1,5.1c0-1.6-0.3-3.2-0.7-4.8
		C408.6,105.7,407.3,102.6,406.7,99.3z M376.1,90.6c-1.2-1.2-1.7-3.1-0.9-4.6c0.7-1.4,2.2-2.4,3.7-2.5c1.5,0,2.8,0.9,3.4,2.2
		c0.8,1.7,0.4,3.9-1.3,5c-0.4,0.3-0.4,0.7-0.3,1c0,0-0.1,0-0.1,0C379,92.1,377.3,91.8,376.1,90.6z M373.3,100.8
		c-1.1-0.7-1.8-2-1.6-3.2c0.3-1.2,1.3-2.3,2.5-2.6c1-0.2,2.1,0.2,2.8,1.1c0.9,1.2,1,2.8-0.1,3.9c-0.2,0.2-0.2,0.4-0.2,0.7
		c-0.1,0.1-0.1,0.2,0,0.3C375.6,101.5,374.4,101.5,373.3,100.8z M366.9,108.9c-1.5,0.4-3.3,0.1-4.3-1.1c-0.9-1.1-1.2-2.7-0.9-4.1
		c0.4-1.6,1.9-2.7,3.5-2.6c2.1,0,4,1.5,4.1,3.7c0,0.5,0.4,0.7,0.7,0.7c0,0-0.1,0.1-0.1,0.1C369.5,107.2,368.5,108.5,366.9,108.9z
		 M386.4,138.6c-1.8-1.7-3.5-3.6-4.8-5.7c-1.4-2.3-2.4-4.7-3.4-7.2c-0.3-0.8-0.6-1.6-1-2.3c2.5,2.5,5,4.9,7.5,7.4
		c1.8,1.8,3.5,3.6,4.8,5.8c1.3,2.2,2,4.7,3.1,7.1c0.1,0.1,0.1,0.3,0.2,0.4c-0.2-0.1-0.3-0.3-0.5-0.4
		C390.3,142,388.3,140.4,386.4,138.6z M177.3,167.1c12-11.2,28.9-7.5,39.6,0.7c8.3,6.3,15.6,18,9.1,30.1c-7.2,13.3-33.5,6.4-59-0.3
		c-0.8-0.2-1.6-0.4-2.4-0.6C166.8,183.7,171.4,172.6,177.3,167.1z M382.7,156.3c-0.3-1.7-0.6-3.3-0.9-4.9c2.2,4.6,5,8.9,8.1,12.9
		c1.1,1.5,2.3,2.9,3.4,4.4c1.1,1.5,1.9,3,2.5,4.7c1.2,3.6,2.2,7.2,2.1,11c0,2.7-0.5,5.6-0.2,8.4c-0.3-0.4-0.6-0.9-0.9-1.3
		c-1.1-1.5-2.5-2.8-3.8-4.3c-0.3-0.4-0.6-0.7-0.9-1.1c-2.1-7.6-4.8-15.3-8.2-23.1C383.5,160.8,383,158.6,382.7,156.3z M172.5,239.4
		c1.2,2,1,4.5-0.6,7.2c-0.6,1.1-1.5,2-2.6,2.7c-0.3-0.8-0.6-1.5-0.9-2.3c-1.3-3.7-2.4-7.5-3.2-11.5
		C168.5,235.8,171.2,237.2,172.5,239.4z M166.1,247.9c0.3,0.8,0.6,1.7,1,2.5c-1.9,0.7-4.3,1-6.9,1.1c0.4,0.4,0.7,0.9,0.9,1.5
		c-1.1-1-2.4-1.8-3.8-2.4c-3.1-1.3-6.5-1.3-9.7-0.8c0,0,0,0-0.1,0c0.5-1.5,1.1-2.9,1.7-3.9c3.2-5.8,8.2-9.5,13.6-10.2
		C163.6,240,164.7,244.1,166.1,247.9z M157.5,319.5c-2.8-5.3-5-10.4-6.6-15.1c-0.7-1.9-1.3-3.8-1.8-5.7c0.1-0.2,0.2-0.5,0.3-0.7
		c0.3-0.7,0.6-1.4,0.7-2.1c0.1-0.4,0.1-0.9,0-1.2c-0.1-0.3-0.5-0.5-0.8-0.6c-0.5-0.2-1-0.2-1.6-0.2c-1-4.1-1.7-8.1-2.2-11.9
		c0.5,0,1,0.1,1.4,0.1c0.3,0,0.6-0.1,0.8-0.2c0.4-0.3,0.5-0.8,0.6-1.3c0-0.4,0-0.8-0.1-1.2c-0.1-0.5-0.1-1-0.2-1.5
		c-0.1-0.8-0.3-1.6-0.6-2.4c-0.6-1.6-1.3-3.2-2.2-4.7c-0.9-1.5-1.9-2.8-3.2-4c-0.5-0.5-1.1-0.9-1.6-1.3c1.1,0,2.2,0.1,3.3,0
		c2-0.2,3.9-0.5,5.7-1.2c2.1-0.7,4.1-1.8,5.9-3.1l2.5,39.7C158.4,306.9,158.2,313.3,157.5,319.5z M113.9,300.2
		c0.2-1.6,0.4-3.1,0.7-4.7c0.2-1.1,0.5-2.2,0.8-3.3c0.3-1.1,0.5-2.2,0.8-3.2c0.3-1,0.7-2,1-3c0.4-1,0.7-2,1.1-3
		c0.4-1.1,0.9-2.1,1.4-3.2c0.2-0.5,0.4-1,0.7-1.4c0.2-0.2,0.3-0.4,0.5-0.6c0.6-0.4,1.3-0.9,1.8-1.4c1.2-1,2.2-2.3,3-3.6
		c0.4-0.7,0.8-1.5,1.1-2.3c0.4,0.8,1,1.5,1.5,2.2c1,1.3,2.1,2.6,3.4,3.6c1.3,1,2.7,1.9,4.2,2.7c1.6,0.8,3.1,1.5,4.8,2
		c0.7,0.2,1.4,0.4,2.1,0.5c0.5,3.9,1.2,8,2.1,12c0.6-0.1,1.2,0.1,1.7,0.3c-0.2,0-0.3,0-0.5,0.1c-1,0.1-2,0.4-2.9,0.6
		c-0.1,0-0.1,0-0.2,0c-0.1,0-0.1,0-0.2,0c-0.5,0-0.9,0.1-1.4,0.1c-0.9,0.1-1.8,0.1-2.7,0.2c-1.7,0.1-3.5,0.2-5.2,0.6
		c-1.7,0.3-3.3,0.9-4.9,1.5c-1.6,0.6-3.2,1.3-4.8,2c-1.5,0.7-2.9,1.4-4.3,2.3c-1.3,0.8-2.6,1.8-3.8,2.8c-0.9,0.8-1.8,1.6-2.6,2.4
		c0.1-0.5,0.2-1.1,0.3-1.6c0.2-1.4,0.3-2.7,0.4-4.1C114.2,300.4,114.1,300.3,113.9,300.2z M112.9,248.3c1.3,0.9,2.6,1.9,3.7,3
		c1.2,1.2,2,2.7,2.9,4.1c0.9,1.5,1.7,3.1,2.6,4.5c0.4,0.7,0.9,1.4,1.3,2.2c0.1,0.1,0.1,0.2,0.1,0.3c-0.1,0-0.2,0-0.3,0.1
		c-0.1,0-0.2,0.1-0.2,0.2c0-0.2-0.1-0.3-0.2-0.4c-0.5-0.4-1.1-0.7-1.7-0.9c-0.6-0.3-1.3-0.5-1.9-0.7c-1-0.4-2-0.7-2.9-1.5
		c-0.9-0.8-1.4-1.8-1.7-2.9c-0.4-1.2-0.7-2.4-1.1-3.7c-0.4-1.3-0.8-2.6-1.2-3.9c0,0-0.2-0.4-0.2-0.6c0.1,0,0.1-0.1,0.2-0.1
		c0.2-0.1,0.4-0.1,0.6-0.2C112.7,248,112.8,248.2,112.9,248.3z M126.3,255.3c-0.9-2.6-0.5-5.5,0.5-8c1-2.6,2.6-5,4.5-7
		c0.1-0.1,0.1-0.1,0.2-0.2c0.5,0.1,1.1,0.1,1.6,0.1c-0.4,2-0.4,4.1-0.8,6.1c-0.8,4.1-2.4,8.1-4.4,11.8c-0.9,1.6-2.1,2.9-3.4,4.1
		c-0.1,0-0.1,0-0.2,0c0,0,0,0,0-0.1c-0.3-0.7-0.8-1.4-1.2-2.1c-0.9-1.4-1.7-2.9-2.5-4.4c-0.9-1.6-1.9-3.3-3.1-4.7
		c-1.2-1.3-2.6-2.3-4-3.3c0.2,0,0.4,0,0.6,0c2.1-0.1,4.4,0.3,6.2,1.4c1.1,0.7,1.8,1.7,2.5,2.8c0.4,0.6,0.8,1.2,1.1,1.9
		c0.4,0.6,0.8,1.2,1,1.9C125.1,256.6,126.6,256.2,126.3,255.3z M143.9,220c1.7,1.8,3.3,3.6,4.7,5.6c0.7,1,1.4,2,1.9,3
		c0,0.1,0.1,0.1,0.1,0.2c-0.2-0.1-0.4-0.3-0.6-0.4c-1.2-0.7-2.5-1.4-4-1.8c-0.7-0.2-1.6-0.3-2.4-0.2c-0.9,0.1-1.9,0.6-2.4,1.4
		c-0.6,0.7-0.9,1.6-1,2.3c-0.1,0.4-0.1,0.8-0.2,1.1l-0.1,0.9c-0.2,1.1-0.7,2.2-1.4,3c-0.6,0.7-1.4,1.3-2.3,1.8
		c-0.1-0.2-0.2-0.4-0.3-0.5c-0.4-0.5-0.9-1.4-1.7-1.1c-0.7,0.3-1.2,0.9-1.7,1.4c-0.2,0.3-0.5,0.6-0.8,0.8c-0.9-0.2-1.8-0.5-2.6-1.1
		c-1.9-1.3-2.9-3.7-3.3-6.2c-0.2-1.2-0.3-2.6-0.3-3.8c0-1.2,0.3-2.4,0.8-3.5c1-2.2,2.8-4.1,4.9-5.7c1.8-1.4,3.7-2.6,5.6-4.1
		C139.2,215.4,141.6,217.6,143.9,220z M134.6,237.6c0,0-0.1,0-0.1,0c0-0.1,0-0.1,0-0.2C134.6,237.5,134.6,237.5,134.6,237.6z
		 M123.2,263.2C123.2,263.3,123.2,263.3,123.2,263.2c0,0.1-0.1,0.1-0.1,0.1C123.2,263.3,123.2,263.3,123.2,263.2
		C123.2,263.2,123.2,263.2,123.2,263.2z M122.4,264.1c0.1,0,0.2,0,0.3-0.1c-0.2,0.3-0.4,0.6-0.6,0.9c-0.3,0.5-0.6,1.1-0.9,1.6
		c-0.3,0.5-0.7,1-1.2,1.5c-0.5,0.5-1,1-1.4,1.5c-0.9,1-1.9,1.8-2.8,2.8c-0.9,1-1.8,2-2.7,3.1c-0.3,0.3-0.6,0.7-0.9,1.1
		c0-0.1,0-0.2,0.1-0.3c0.2-1.4,0.5-2.9,1-4.2c0.4-1.2,1.1-2.3,1.8-3.3c0.8-1.1,1.8-2.2,3-3.1c0.6-0.4,1.2-0.8,1.9-1.1
		C120.8,264.1,121.6,264.1,122.4,264.1z M112.5,277.3c0.4-0.5,0.8-1,1.3-1.5c0.9-1,1.8-2,2.7-3c0.9-0.9,1.9-1.7,2.7-2.7
		c0.5-0.5,0.9-1,1.4-1.5c0.4-0.5,0.9-0.9,1.2-1.4c0.4-0.6,0.6-1.2,1-1.7c0.3-0.6,0.8-1.2,1.1-1.8c0.1-0.2,0-0.4-0.1-0.5
		c0.1,0,0.1,0,0.2,0c0.1,0.1,0.2,0.2,0.4,0.3c0.5,0.2,1.1,0.3,1.7,0.5c0.8,0.2,1.6,0.6,2.3,1c1.4,0.7,2.7,1.6,3.9,2.7
		c1.2,1.1,2.3,2.3,3.4,3.4c1.2,1.2,2.3,2.4,3.5,3.6c0.7,0.7,1.4,1.3,2.1,1.9c0.7,0.6,1.4,1.1,2.1,1.7c0.6,0.6,1.1,1.4,1.9,1.9
		c0.1,0,0.1,0.1,0.2,0.1c-0.4,0-0.8-0.1-1.2-0.1c-1.8-0.3-3.5-0.9-5.2-1.6c-1.6-0.7-3.1-1.4-4.6-2.4c-1.5-1-2.7-2.1-3.8-3.5
		c-1.2-1.4-2.3-2.9-2.9-4.6c-0.2-0.5-0.7-0.7-1.2-0.5c-0.3,0.1-0.4,0.4-0.5,0.7c0,0.1,0,0.2-0.1,0.3c0,0.1,0,0.2,0,0.3
		c0,0,0,0.1,0,0.1c-0.2,0.6-0.4,1.2-0.6,1.8c-0.5,1.1-1.2,2.2-2,3.1c-1.7,1.9-4,3.5-6.5,4c-1.4,0.3-2.7,0.1-4.1,0
		c-0.2,0-0.4,0-0.5-0.1C112.2,277.7,112.4,277.5,112.5,277.3z M149.9,262.3c-1.8,0.7-3.8,1.2-5.8,1.4c-2.3,0.2-4.5,0-6.8-0.1
		c-0.9,0-1.1,1.3-0.2,1.5c0,0,0.1,0,0.1,0c0.1,0.1,0.2,0.1,0.2,0.2c0.1,0.1,0.3,0.2,0.4,0.3c0.3,0.2,0.6,0.3,0.9,0.5
		c0.5,0.3,1,0.6,1.5,1c0.9,0.7,1.7,1.5,2.4,2.4c0.8,1,1.4,2.1,2,3.2c0.6,1.2,1.2,2.4,1.5,3.7c0.2,0.8,0.4,1.5,0.5,2.3
		c0.1,0.5,0.2,1,0.2,1.5c-0.4-0.1-0.8-0.3-1.1-0.5c-0.7-0.4-1.2-1.1-1.7-1.7c-0.5-0.6-1.2-1.1-1.8-1.6c-0.6-0.5-1.3-1-1.9-1.6
		c-2.4-2.3-4.6-4.7-6.9-7c-1.1-1.1-2.3-2.2-3.7-3c-1.3-0.7-2.7-1.5-4.1-1.8c-0.1,0-0.3-0.1-0.4-0.1c0.6-0.1,1.2-0.3,1.8-0.4
		c1.2-0.3,2.4-0.5,3.7-0.7c2.4-0.5,4.8-1.1,7.2-1.8c2.3-0.7,4.7-1.4,7.1-2c2.4-0.6,4.8-1,7.3-1.4c2.3-0.3,4.7-0.5,7-0.8
		c-0.1,0.1-0.1,0.1-0.2,0.2C156.4,258.5,153.4,260.9,149.9,262.3z M158.6,255.1c-0.6,0.1-1.2,0.1-1.9,0.2c-1.2,0.1-2.4,0.3-3.7,0.4
		c-2.4,0.3-4.9,0.7-7.3,1.2c-4.8,1.1-9.5,2.8-14.4,3.9c-1.4,0.3-2.7,0.5-4.1,0.8c-0.4,0.1-0.9,0.2-1.3,0.3c0.8-0.8,1.5-1.7,2.2-2.7
		c1.1-1.7,2-3.6,2.8-5.5c0.8-1.9,1.4-3.9,1.9-5.9c0.5-2,0.6-4.1,0.9-6.2c0.1-0.5,0.2-1,0.3-1.5c0.6-0.1,1.2-0.2,1.7-0.4
		c0.5,1.1,0.8,2.2,1.1,3.3c0.4,1.4,0.6,2.7,0.6,4.1c0.1,1.5,0.2,3,0,4.4c-0.3,1.6-1,3.1-1,4.7c0,0.5,0.5,0.9,1,0.8
		c0.4-0.1,0.7-0.4,1-0.8c0.3-0.4,0.7-0.7,1-1c0.7-0.6,1.4-1.1,2.1-1.6c1.5-0.9,3.1-1.6,4.7-2.1c2.9-0.7,6-0.9,8.9-0.1
		c1.4,0.4,2.8,1,4,1.9c0.3,0.2,0.6,0.4,0.8,0.7c0.1,0.1,0.3,0.2,0.4,0.4c0,0,0.1,0.1,0.1,0.2c0,0,0,0-0.1,0.1
		c-0.1,0.1-0.2,0.2-0.3,0.3C159.6,254.9,159.1,255,158.6,255.1z M116.8,194.1c2.7-1.2,6.1-1.8,10.1-1.8c9.5,0,22.2,3.1,34.9,6.4
		c-0.1,0.6-0.2,1.2-0.2,1.8c-1.4,10.9-1.1,22.3,0.7,32.7c-6.1,0.8-11.7,4.9-15.3,11.4c-0.8,1.4-1.4,2.9-2,4.8
		c-0.1,0-0.2-0.1-0.3-0.1c0.1,0.2,0.1,0.4,0.1,0.6c0.7-0.4,1.5-0.5,2.6-0.2c0.1,0,0.1,0,0.2,0c-2,0.3-3.8,1-5.6,1.9
		c-0.9,0.5-1.8,1.1-2.6,1.7c-0.3,0.2-0.5,0.4-0.8,0.7c0.2-0.8,0.5-1.5,0.6-2.3c0.2-1.7,0.2-3.3,0-5c-0.2-2.6-0.8-5.3-1.9-7.7
		c1.1-0.6,2.2-1.4,3-2.3c1-1.2,1.7-2.7,1.9-4.2l0.1-1.1c0-0.3,0-0.6,0.1-0.9c0.1-0.5,0.3-1,0.5-1.4c0.2-0.3,0.5-0.5,1-0.6
		c0.4-0.1,1,0,1.6,0.1c1.1,0.3,2.3,0.8,3.4,1.4c1.1,0.6,2.2,1.4,3.2,2.1l0,0c0.2,0.1,0.4,0.2,0.7,0.2c0.5,0,1-0.5,0.9-1.1v0
		c-0.1-0.5-0.1-0.8-0.2-1.1c-0.1-0.3-0.2-0.7-0.3-1c-0.2-0.6-0.5-1.2-0.8-1.8c-0.6-1.2-1.3-2.3-2-3.3c-1.5-2.1-3.1-4.1-4.8-5.9
		c-3.5-3.7-7.3-7-11.2-10.1c-2-1.6-4.2-3-6.6-4c-1.2-0.5-2.5-0.9-3.9-1.1c-1.4-0.1-2.8,0-4.1,0.4c-2.7,0.9-4.7,3.1-6,5.4
		c-1.2,2.3-1.8,4.9-1.6,7.5c1.1-2.3,2-4.5,3.3-6.5c1.2-2,2.9-3.7,5-4.3c1-0.3,2.1-0.4,3.2-0.2c1.1,0.2,2.2,0.5,3.3,1
		c2.1,0.9,4.1,2.3,6,3.8c1.1,0.9,2.2,1.8,3.3,2.7c-2.3,0.5-4.4,1.6-6.2,3c-2.2,1.6-4.3,3.7-5.7,6.3c-0.7,1.3-1,2.8-1.1,4.3
		c-0.1,1.5,0,2.8,0.3,4.3c0.2,1.4,0.6,2.8,1.3,4.2c0.7,1.3,1.6,2.6,2.9,3.5c0.7,0.5,1.4,0.9,2.2,1.2c-0.7,0.8-1.4,1.6-2,2.4
		c-0.3,0.4-0.6,0.9-0.8,1.4c-3.8-1.6-7.3-3.2-10.2-4.7c-7.9-4.2-14-15.1-13.7-24.9C103.2,207.7,105.7,199.3,116.8,194.1z
		 M88.2,218.6c0.5,0.8,0.8,1.8,0.9,2.6c0.1,0.8,0.1,1.6-0.1,2.4c-0.1,0.4-0.2,0.7-0.3,1.1c-0.1,0.1-0.1,0.3-0.2,0.4
		c0,0.1-0.1,0.1-0.1,0.1c-0.2,0-0.3-0.1-0.4-0.3c-0.2-0.2-0.3-0.3-0.4-0.4c-0.2-0.3-0.3-0.6-0.3-1c-0.1-0.7-0.1-1.6,0.1-2.3
		c0.1-0.8,0.4-1.6,0.8-2.4C88.1,218.8,88.2,218.7,88.2,218.6z M74.8,237.5c0.5,0.2,1.1,0.3,1.6,0.5c1,0.3,2.1,0.7,3,1.3
		c0.8,0.5,1.6,1.2,2.2,2c0.4,0.4,0.7,0.9,1.1,1.3c0.2,0.2,0.3,0.4,0.5,0.7c0.1,0.2,0.2,0.3,0.2,0.4c0,0.3,0.2,0.6,0.4,0.7
		c0.4,0.3,1.1,0.3,1.2-0.3c0.5-1.7,1.3-3.3,2.5-4.6c0.6-0.7,1.3-1.3,2.1-1.7c0.2-0.1,0.4-0.2,0.6-0.3c-0.1,0.2-0.3,0.4-0.4,0.5
		c-0.6,0.8-1.2,1.7-1.8,2.6c-1.1,1.8-2.3,3.6-3.3,5.5c0,0.1,0,0.1,0,0.2c-0.7,0-1.4,0.1-2-0.2c-0.5-0.2-1-0.7-1.5-1
		c-1-0.8-2.1-1.5-3-2.4c-0.9-0.9-1.7-1.9-2.5-3c-0.4-0.5-0.7-1.1-1.1-1.6c-0.1-0.2-0.2-0.3-0.3-0.5
		C74.6,237.4,74.7,237.5,74.8,237.5z M90.3,238.6c0.3-0.4,0.6-0.9,0.9-1.2c0.2-0.2,0.4-0.2,0.5-0.4c0,0,0,0,0,0
		c0.4,1.6-0.1,3.4-1,4.7c-0.3,0.4-0.6,0.8-1,1.1c-0.4,0.4-0.8,0.9-1.3,1.3c-0.4,0.4-0.9,0.7-1.4,0.9c-0.6,0.2-1.3,0.3-1.5,1
		c0,0,0,0.1,0,0.1c-0.1,0-0.1,0-0.2,0c0.9-1.8,2.1-3.4,3.1-5.1C89.2,240.2,89.7,239.4,90.3,238.6z M71.7,258
		c-0.1,0.1-0.1,0.2-0.2,0.3c0-0.1,0-0.3,0-0.4c0-0.9,0.2-1.8,0.5-2.7c0.4-1.6,1.1-3.2,2.3-4.5c0.5-0.6,1.2-1.1,1.9-1.5
		c0.8-0.5,1.8-0.7,2.5-1.4c0.6-0.5,0.1-1.3-0.6-1.3c-1,0-1.9-0.9-2.5-1.6c-0.7-0.8-1.3-1.7-1.6-2.7c-0.3-0.9-0.5-1.9-0.5-2.9
		c0-0.5,0-1,0-1.5c0-0.1,0-0.3,0.1-0.4c0.1,0.2,0.2,0.3,0.3,0.5c0.3,0.5,0.6,1,0.9,1.4c0.6,0.9,1.3,1.7,2,2.5c1.3,1.6,3.1,2.8,4.7,4
		c0.5,0.3,0.9,0.6,1.5,0.8c0.2,0,0.4,0.1,0.5,0.1c-1.5,0.6-2.9,1.3-4.1,2.2c-1.2,0.9-2.3,1.9-3.2,3c-1.1,1.2-2.1,2.4-3,3.8
		C72.7,256.5,72.2,257.2,71.7,258z M81.7,253.2c-0.5,2.4-0.4,4.9-0.2,7.4c0,0.7,0.1,1.4,0.1,2.1c0,0.3,0.1,0.7,0,1.1
		c0,0,0,0.1,0,0.1c-0.1,0.1-0.2,0.2-0.4,0.3c-0.2-0.8-0.5-1.5-0.7-2.2c-0.3-0.9-0.5-1.8-0.6-2.7c-0.1-1,0-2,0.1-3
		c0.1-0.5,0.2-1,0.3-1.5c0.1-0.6,0.4-1,0.4-1.6c0-0.3-0.2-0.6-0.5-0.7c-0.3-0.1-0.6,0-0.9,0.2c-0.7,0.6-1.5,1.3-2.2,1.9
		c-0.7,0.6-1.5,1.2-2.2,1.9c-0.7,0.7-1.4,1.3-2.1,2c-0.3,0.3-0.5,0.5-0.8,0.8c0.1-0.2,0.2-0.4,0.4-0.6c0.4-0.7,0.8-1.3,1.2-2
		c0.9-1.3,1.8-2.5,2.9-3.7c0.9-1.1,1.9-2.1,3.1-2.9c1.1-0.8,2.3-1.5,3.6-2.1c0.4-0.2,0.7-0.3,1.1-0.4c-0.6,0.8-1.2,1.6-1.6,2.5
		C82.2,250.9,81.9,252.1,81.7,253.2z M91.7,255.7c-0.7-0.1-1.4-0.3-2-0.5c-0.8-0.3-1.4-0.7-2-1.2c-0.6-0.6-1.1-1.2-1.5-1.9
		c-0.2-0.3-0.6-0.5-1-0.3c-0.3,0.1-0.6,0.6-0.5,0.9c0.3,0.7,0.2,1.4,0.2,2.2c0.1,0.9,0.2,1.7,0.3,2.6c0,0.8-0.1,1.6-0.5,2.4
		c-0.4,0.8-0.9,1.5-1.4,2.1c-0.3,0.4-0.6,0.7-0.9,1.1c0,0,0-0.1,0-0.1c0-0.6,0-1.2-0.1-1.9c-0.1-1.2-0.1-2.4-0.2-3.6
		c0-2.3,0.2-4.6,1-6.7c0.4-1.2,1.1-2.2,1.9-3.2c0.1-0.2,0.1-0.3,0-0.5c0.1,0,0.3-0.1,0.4-0.1c-0.1,0.9,0.1,1.8,0.5,2.6
		c0.5,0.9,1.5,1.6,2.3,2.3c0.9,0.7,1.9,1.4,2.7,2.2c0.4,0.4,0.8,0.8,1.1,1.2c0.1,0.2,0.3,0.4,0.4,0.6c0,0,0,0,0,0
		C92.2,255.8,91.9,255.8,91.7,255.7z M92.2,253.1c0.3,0.6,0.4,1.3,0.6,1.9c-0.1-0.1-0.1-0.1-0.1-0.2c-0.3-0.4-0.6-0.8-0.9-1.1
		c-0.8-0.8-1.6-1.4-2.5-2.1c-0.5-0.3-0.9-0.7-1.3-1.1c-0.4-0.3-0.8-0.7-1.1-1c-0.6-0.7-0.9-1.7-0.7-2.6c0-0.1,0-0.1,0-0.2
		c0.1,0,0.1,0.1,0.2,0.1c0.7,0.3,1.4,0.6,2.1,1c0.6,0.4,1.1,0.9,1.6,1.4C90.9,250.5,91.6,251.8,92.2,253.1z M95,248.2
		c-1.8-1.1-3.8-2-5.9-2.4c0.4-0.3,0.8-0.6,1.1-0.9c0.5-0.5,1.1-1.1,1.6-1.7c0,0.2,0.1,0.4,0.2,0.5c0.7,0.9,1.4,1.8,2.2,2.5
		c0.8,0.8,1.5,1.5,2.2,2.3c0.3,0.4,0.5,0.7,0.8,1.1C96.4,249.1,95.7,248.6,95,248.2z M111.9,287.6c-0.2-1.1-0.6-2.2-0.8-3.3
		c-0.2-1.1-0.4-2.3-0.7-3.4c-0.3-1.1-0.5-2.3-0.8-3.5c-0.3-1.1-0.5-2.3-0.8-3.4c-0.6-2.3-1.1-4.6-1.8-6.8c-0.7-2.2-1.6-4.3-2.5-6.4
		c-0.9-2.1-1.7-4.2-2.7-6.1c-1-2-2.2-3.9-3.4-5.7c-0.6-0.9-1.2-1.8-2-2.6c-0.8-0.8-1.6-1.5-2.3-2.4c-0.3-0.3-0.6-0.7-0.8-1
		c0,0,0,0,0-0.1c0-0.1,0-0.2-0.1-0.2c-0.2-0.2-0.3-0.4-0.5-0.6c0,0,0,0,0,0c0,0,0-0.1,0,0c0,0,0,0,0,0c0,0,0,0,0,0c0,0,0,0,0,0
		c0,0,0,0,0,0c1.1-2,1.4-4.4,0.5-6.5c-0.1-0.2-0.4-0.4-0.7-0.4c-0.3,0-0.6,0.1-0.8,0.3c-1,0.3-2,0.6-2.9,1.1
		c-0.2,0.1-0.4,0.3-0.6,0.4c-0.1-0.1-0.1-0.1-0.2-0.2c-0.1-0.1-0.2-0.2-0.3-0.3c0-0.2,0-0.3-0.2-0.5c-2.9-3-5.5-6.8-6-11.1
		c-0.2-2.1,0-4.5,1.1-6.3c0.5-0.7,1.1-1.4,1.9-1.8c0.8-0.3,1.7-0.2,2.4,0.2c0.2,0.1,0.4,0.3,0.6,0.4c-0.2,0.2-0.3,0.4-0.4,0.6
		c-0.5,0.8-0.8,1.8-1,2.8c-0.3,1.8-0.4,4.3,1.4,5.4c0.5,0.3,1.2,0.4,1.7,0.1c0.4-0.3,0.7-0.7,0.9-1.2c0.3-0.8,0.5-1.7,0.6-2.6
		c0.1-1.7-0.4-3.5-1.4-4.9c0.2-0.2,0.5-0.3,0.8-0.4c1-0.3,2.1-0.4,3.1-0.2c1,0.1,1.9,0.4,2.9,0.7c1.1,0.3,2.2,0.2,3.2-0.4
		c0.5-0.3,1-0.7,1.5-1.2c0.7,10.2,6.8,20.5,15,24.8c2.2,1.2,5.8,2.9,10.2,4.6c-0.1,0.1-0.1,0.2-0.2,0.3c-0.8,1.7-1.3,3.6-1.4,5.5
		c-0.7-1.1-1.4-2.3-2.5-3.1c-1.9-1.6-4.4-2.2-6.9-2.2c-0.7,0-1.5,0-2.2,0.1c-0.6,0.1-1.4,0.3-1.8,0.7c-0.6,0.6-0.4,1.3-0.1,2
		c0.3,0.7,0.5,1.5,0.7,2.2c0.4,1.3,0.7,2.7,1.1,4.1c0.4,1.3,0.8,2.7,1.6,3.8c0.8,1.2,2.1,2.1,3.4,2.7c0.7,0.3,1.5,0.5,2.2,0.8
		c0.2,0.1,0.4,0.1,0.6,0.2c-0.1,0-0.2,0-0.3,0.1c-0.7,0.2-1.5,0.5-2.1,0.9c-1.2,0.8-2.3,1.8-3.2,2.9c-0.9,1.1-1.7,2.3-2.3,3.6
		c-0.7,1.4-1.1,2.9-1.4,4.4c-0.1,0.8-0.2,1.5-0.4,2.3c-0.1,0.6-0.3,1.3,0,1.9c0.4,0.7,1.2,0.7,1.9,0.8c0.7,0,1.5,0.1,2.2,0.2
		c1.4,0,2.7-0.3,3.9-0.8c0,0,0,0,0,0c-0.4,1-0.9,1.9-1.2,2.8c-0.4,1-0.7,2-1,3c-0.3,1-0.8,2-1.1,3.1c-0.3,1-0.6,2.1-0.8,3.1
		c-0.3,1.1-0.5,2.2-0.8,3.3c-0.2,1-0.4,2-0.6,3c0-0.2-0.1-0.3-0.1-0.5c0-0.8-0.1-1.7-0.2-2.5C112.6,292.1,112.4,289.8,111.9,287.6z
		 M109.6,312.6C109.6,312.6,109.6,312.6,109.6,312.6C109.6,312.6,109.6,312.6,109.6,312.6C109.6,312.6,109.6,312.6,109.6,312.6z
		 M110.2,312.1C110.2,312,110.1,312,110.2,312.1c1.7-2,3.4-3.9,5.3-5.6c1.1-1.1,2.3-2.1,3.6-3c1.3-0.9,2.7-1.7,4.1-2.4
		c3-1.6,6.2-2.9,9.5-3.8c3.4-1,6.9-0.9,10.4-1.2c1.1-0.1,2.1-0.4,3.1-0.6c0.6-0.1,1.1-0.2,1.7-0.2c0,0,0,0,0,0
		c-0.7,0.4-1.4,0.9-2.1,1.3c-1.4,0.9-2.8,1.7-4.3,2.5c-2.9,1.5-6,2.8-8.9,4.4c-3,1.7-5.8,3.5-8.8,5.2c-1.5,0.9-3,1.7-4.5,2.5
		c-1.1,0.6-2.2,1.2-3.3,1.7c-1.3,0.6-2.7,1.1-4.1,1.2c-0.9,0-1.7-0.1-2.4-0.5C110.1,313.3,110.7,312.7,110.2,312.1z M111,314.9
		c1.3,0.1,2.5-0.2,3.7-0.6c1.2-0.4,2.4-1,3.6-1.6c1.3-0.7,2.7-1.4,4-2.1c3-1.7,6-3.5,9-5.3c1.5-0.9,3-1.7,4.5-2.5
		c1.5-0.7,3-1.4,4.5-2.2c1.7-0.8,3.4-1.7,5-2.7c0.8-0.5,1.6-1,2.4-1.5c0.3-0.2,0.6-0.3,0.8-0.5c-0.1,0.3-0.2,0.6-0.3,0.9
		c-0.3,0.6-0.5,1.2-0.8,1.8c-0.6,1.3-1.2,2.6-2,3.8c-1.6,2.3-3.5,4.5-5.5,6.4c-2.1,1.9-4.3,3.7-6.6,5.3c-2.3,1.6-4.8,3.1-7.5,4
		c-0.8,0.3-1.6,0.5-2.3,0.7c-0.8,0.2-1.6,0.5-2.5,0.8c-0.7,0.2-1.4,0.4-2.1,0.5c-0.3,0.1-0.6,0.1-0.9,0.2c-0.4,0-0.7,0-1.1,0
		c-0.8,0-1.1,1.4-0.2,1.5c0.4,0.1,0.9,0.1,1.3,0c1.7,0,3.3,0.1,5,0.4c2,0.4,3.9,1.1,5.6,2.1c0.8,0.5,1.5,1,2.2,1.7
		c0.6,0.7,1.1,1.4,1.7,2.2c1.2,1.7,2.3,3.4,3.2,5.2c0.4,0.8,0.7,1.7,1.1,2.5c0.1,0.2,0.2,0.3,0.2,0.4c-0.2-0.1-0.3-0.2-0.5-0.3
		c-1.2-0.7-2.5-1-3.7-1.4c-1.3-0.5-2.5-1.2-3.7-1.8c-1.2-0.7-2.4-1.3-3.6-2c-2.4-1.3-4.9-2.5-6.9-4.3c-1-0.9-1.9-1.9-2.8-2.9
		c-1-1-1.9-2-2.7-3c-1-1.2-2-2.4-2.8-3.7c-0.5-0.8-0.8-1.7-1-2.7C109.8,314.6,110.4,314.8,111,314.9z M83.3,295.4
		c0.5,0,1,0.2,1.5,0.3c0.7,0.1,1.3,0.2,2,0.3c1.3,0.2,2.5,0.4,3.8,0.8c1.2,0.4,2.3,0.8,3.5,1.3c2.2,0.8,4.4,1.6,6.4,2.8
		c1,0.6,2,1.2,2.8,2c0.7,0.7,1.3,1.6,1.7,2.5c0.4,0.9,0.8,1.8,1.2,2.8c0.2,0.5,0.4,1.1,0.6,1.6c0.2,0.5,0.3,1,0.5,1.6
		c-0.5,0-0.9,0-1.4-0.1c-3-0.5-5.8-2-8.5-3.4c-2.8-1.5-5.4-3.2-8-4.9c-1.4-0.9-2.8-1.8-3.9-3.1c-1.2-1.3-1.7-2.9-2.3-4.4
		C83.3,295.4,83.3,295.4,83.3,295.4z M72.3,327.3c0.7-0.7,1.4-1.4,2.2-2c1.8-1.5,3.8-2.7,5.9-3.8c2.1-1.1,4.3-2.1,6.6-2.8
		c2.3-0.7,4.7-1.1,7.2-1.1c1,0,2,0.1,2.9,0.2c0.7,0.2,1.4,0.4,2.2,0.5c0.7,0.1,1.3,0.2,2,0.2c0.8,0,1-1.1,0.4-1.5
		c-0.8-0.5-1.9-0.5-2.8-0.6c-0.5,0-1-0.1-1.5-0.2c-0.9-0.3-1.9-0.6-2.8-1c-2-0.9-3.9-1.9-5.6-3.2c-1.5-1-2.9-2.2-3.9-3.8
		c-1.2-1.8-1.7-4-2-6.1c-0.2-1.2-0.2-2.5-0.3-3.7c0-0.7-0.1-1.4-0.1-2.2c0.4,1,0.8,2.1,1.5,3c0.8,1.1,1.7,1.9,2.8,2.7
		c1.2,0.9,2.4,1.7,3.6,2.5c1.2,0.8,2.5,1.6,3.8,2.4c1.3,0.8,2.6,1.5,3.9,2.2c1.3,0.6,2.5,1.3,3.9,1.8c1.3,0.5,2.7,0.9,4.1,1.1
		c0.3,0,0.6,0,0.9,0c0,0.1,0,0.2,0,0.3c0.1,0.2,0.2,0.4,0.3,0.6c0,0.1,0,0.2,0.1,0.3c0.1,0.1,0.1,0.1,0.2,0.2
		c-0.8,1.1-1.4,2.3-2.3,3.4c-0.8,1-1.7,2-2.8,2.8c-2.4,1.7-4.9,3.2-7.7,4.1c-1.4,0.4-2.9,0.8-4.3,1.1c-1.4,0.3-2.9,0.7-4.4,1
		c-1.5,0.2-3,0.4-4.5,0.5c-1.5,0.2-3.1,0.2-4.6,0.3c-1.6,0.1-3.3,0.2-4.7,0.7c-0.1,0.1-0.3,0.1-0.4,0.2
		C72.2,327.4,72.2,327.4,72.3,327.3z M97.1,357.2c-0.1,0.7-0.1,1.3-0.2,2c0,0,0,0.1,0,0.2c0,0.1,0,0.2,0,0.3c0,0.3-0.1,0.5-0.1,0.8
		c-0.1,0.6-0.1,1.1-0.2,1.7c0,0.3-0.1,0.9,0,1.4c0,0,0,0,0,0c-0.1,0-0.1-0.1-0.1-0.1c0,0,0,0,0,0c0,0,0,0,0,0c0-0.1-0.1-0.1-0.1-0.2
		c-0.1-0.1-0.2-0.3-0.2-0.4c0,0,0,0,0,0c0,0,0-0.1,0-0.1c0-0.1-0.1-0.2-0.1-0.3c-0.2-0.7-0.4-1.5-0.5-2.2c-0.4-2.2-0.8-4.5-1.1-6.7
		c-0.2-1.6-0.4-3.1-0.5-4.7c-0.1-1.5-0.2-3-0.2-4.6c0.1-2.8,0.7-5.7,1.9-8.3c1.2-2.6,2.7-5.1,4.7-7.2c0.5-0.5,1-1,1.3-1.6
		c0.5-0.8-0.6-1.6-1.2-1c-2.8,2.7-5.7,5.7-9.6,6.9c-0.9,0.3-1.9,0.5-2.9,0.5c-1.1,0.1-2.3-0.1-3.4-0.1c-2.3-0.2-4.7-0.4-6.9-1.1
		c-1.2-0.4-2.4-0.8-3.4-1.5c-0.9-0.6-1.8-1.3-2.8-1.8c0,0,0-0.1,0-0.1c0.1-0.1,0.3-0.1,0.4-0.2c0.6-0.3,1.1-0.6,1.7-0.8
		c1.4-0.4,2.9-0.5,4.4-0.5c3-0.1,6-0.3,9-0.8c1.4-0.2,2.9-0.6,4.3-1c1.4-0.3,2.8-0.6,4.2-1.1c2.7-0.8,5.2-2.3,7.5-3.9
		c1.3-0.9,2.3-1.9,3.3-3.1c0.5-0.6,0.9-1.2,1.4-1.9c0.1-0.1,0.1-0.2,0.2-0.2c-0.1,0.4-0.3,0.9-0.4,1.3c-0.3,1-0.5,1.9-0.7,2.9
		c-0.4,1.9-0.8,3.9-1.3,5.8c-1,3.9-2.1,7.8-3.2,11.6c-1.1,3.8-2.3,7.6-3.2,11.5c-0.5,1.9-0.9,3.8-1.2,5.8
		C97.3,355.2,97.2,356.2,97.1,357.2z M112.6,329.1c-0.5-0.4-1.1,0.1-1.2,0.7c-0.1,1.4,0.5,2.9,0.8,4.3c0.3,1.5,0.5,3,0.5,4.5
		c0,2.8-1.1,5.4-2.4,7.9c-1.3,2.5-2.8,4.9-4.6,7.1c-1.8,2.2-3.6,4.3-5.3,6.5c-0.7,0.9-1.5,1.9-2.4,2.7c-0.2,0.2-0.5,0.4-0.8,0.6
		c0-0.5,0-0.9,0.1-1.4c0.1-0.9,0.2-1.7,0.3-2.6c0.2-1.5,0.3-3.1,0.5-4.6c0.3-1.9,0.7-3.8,1.1-5.6c0.9-3.8,2.1-7.5,3.1-11.2
		c1.1-3.8,2.1-7.5,3.1-11.3c0.5-2.1,1.1-4.2,1.5-6.3c0.2-1.1,0.4-2.1,0.7-3.2c0.2-0.8,0.5-1.6,0.7-2.4c0.1,0.7,0.3,1.3,0.6,1.9
		c0.6,1.2,1.4,2.2,2.2,3.3c0.8,1.1,1.7,2.1,2.6,3.1c0.9,1,1.9,2,2.8,3c0.9,1,1.9,1.9,3,2.6c1.1,0.8,2.3,1.5,3.5,2.1
		c1.2,0.7,2.4,1.3,3.6,1.9c1.2,0.7,2.4,1.3,3.7,2c0.7,0.3,1.4,0.7,2.1,1c0.7,0.3,1.4,0.5,2.1,0.7c0.7,0.3,1.4,0.6,2.1,1
		c0.3,0.2,0.6,0.4,0.9,0.6c0,0,0,0,0,0.1c-0.1,0-0.3,0-0.5,0c-0.4,0-0.7-0.1-1.1-0.1c-0.5,0-1,0.1-1.5,0.1c-1.1,0.1-2.1,0.3-3.2,0.3
		c-1,0-2.1-0.1-3.1-0.3c-2-0.3-4-0.8-6-1.6c-2.1-0.8-4-1.8-5.9-3c-0.8-0.5-1.6-1-2-1.9C113.8,330.6,113.5,329.7,112.6,329.1z
		 M129.4,379.3l-17.7,18.6c1.1-3,1.9-6.2,2.4-9.4c0.4-2.2,0.6-4.3,0.8-6.5c0.2-2.2,0.6-4.4,0.9-6.5c1.3-7.6,2.2-15.7,6.9-22.1
		c1.9-2.6,4.7-4.9,8-5.1c1.7-0.1,3.4,0.5,4.9,1.3c1.3,0.7,2.4,1.7,3.2,2.9c-1.4,0.4-2.8,0.7-4.1,1.4c-1.8,0.9-3.2,2.5-4.3,4.2
		c-0.4,0.6-0.8,1.3-1.1,2.1c-0.2,0.7-0.3,1.4-0.4,2.1c-0.1,1.4,0.2,2.9,0.9,4.2c0.8,1.4,2.1,2.3,3.8,2.5c2,0.3,4.1-0.4,5.5-1.9
		c1.2-1.3,1.8-2.9,2.2-4.6c0.4-1.9,0.7-4,0.5-5.9c-0.1-1.2-0.4-2.4-0.9-3.5c0,0,0,0,0-0.1c2.1-1,4.4-1.6,6.4-2.9
		c1.1-0.7,2.1-1.6,2.8-2.8c0.1-0.1,0.1-0.2,0.2-0.3C145.5,358.8,138.4,369.8,129.4,379.3z M139.5,353.6c0.6,1.4,0.9,2.8,0.9,4.4
		c0,1.7-0.3,3.5-0.8,5.1c-0.4,1.4-1.1,2.7-2.3,3.5c-0.7,0.5-1.6,0.7-2.5,0.8c-0.8,0-1.6-0.1-2.2-0.5c-0.9-0.6-1.5-1.6-1.8-2.8
		c-0.1-0.6-0.2-1.1-0.2-1.8c0-0.2,0-0.3,0-0.5c0-0.1,0-0.1,0-0.2c0,0,0-0.1,0-0.2c0.1-0.3,0.1-0.6,0.2-0.9c0-0.1,0.1-0.3,0.1-0.4
		c0,0,0-0.1,0.1-0.1c0-0.1,0.1-0.1,0.1-0.2c0.2-0.3,0.4-0.7,0.6-1c0.5-0.8,1.1-1.5,1.8-2.2c1.3-1.3,2.9-2,4.6-2.6
		C138.5,354,139,353.8,139.5,353.6z M151.1,345.1c0.1-0.6,0.2-1.2,0.1-1.8c-0.2-1.4-1.4-2.4-2.4-3.3c-0.6-0.5-1.3,0.3-0.8,0.8
		c0.7,0.7,1.6,1.5,1.9,2.5c0.3,1.1-0.3,2.3-0.8,3.2c-1.3,2-3.4,3.1-5.6,4c-1.1,0.4-2.1,0.8-3.2,1.3c-0.2-0.3-0.4-0.6-0.6-0.9
		c-1.1-1.4-2.6-2.5-4.2-3.2c-1.8-0.8-3.6-1.2-5.6-1c-1.8,0.2-3.5,1-4.9,2.1c-3.2,2.4-5.4,5.9-6.9,9.5c-0.6,1.4-1,2.7-1.4,4.1
		c0-0.2,0-0.4,0-0.5c0.1-2.2-0.1-4.4-0.3-6.6c-0.2-2.2-0.4-4.4-0.5-6.6c-0.4-5-1.1-9.9-1.7-14.9c0-0.1,0-0.1,0-0.2
		c0.4,0.3,0.8,0.6,1.2,0.9c1.8,1.2,3.6,2.2,5.6,3c2,0.9,4.1,1.5,6.3,1.8c1.1,0.2,2.2,0.3,3.4,0.4c1.1,0.1,2.2,0,3.3-0.2
		c1-0.1,1.9-0.2,2.9-0.1c0.8,0.1,1.8,0,2.2-0.8c0.4-0.7,0-1.6-0.3-2.2c-0.2-0.3-0.3-0.6-0.5-0.9c-0.1-0.1-0.1-0.2-0.2-0.3
		c0,0,0,0,0,0c0,0,0,0,0,0c-0.1-0.2-0.1-0.4-0.2-0.5c-0.8-2.1-1.9-4-3.1-5.8c-1.1-1.7-2.2-3.5-3.8-4.8c-0.9-0.8-2.1-1.3-3.2-1.8
		c-1.1-0.5-2.3-0.9-3.5-1.2c-0.5-0.1-1-0.2-1.5-0.3c0.1,0,0.2-0.1,0.3-0.1c0.8-0.3,1.7-0.5,2.5-0.7c3-1,5.8-2.5,8.4-4.3
		c2.6-1.8,5.1-3.8,7.4-6c1.1-1.1,2.2-2.2,3.2-3.4c1-1.2,2.1-2.5,2.9-3.9c0-0.1,0.1-0.1,0.1-0.2c0.3,1.1,0.7,2.1,1,3.2
		c2,5.7,4.7,12,8.4,18.4C155.7,331,153.8,338.2,151.1,345.1z M205.9,363.1c-23.3-9.7-37.6-25.1-46.4-40c1.1-7.4,1.5-15,1-22.6
		l-2.6-41.2c-0.4,0.7-1.1,1.2-1.9,1.4c1.3-0.9,2.4-1.9,3.6-2.9c0.3-0.3,0.7-0.6,1-1c0.3-0.3,0.7-0.6,1-0.9c0.3-0.3,0.6-0.8,0.6-1.3
		c0-0.2-0.1-0.4-0.2-0.6c2.2-0.1,4.3-0.5,6.1-1.2c6.2,14,18.2,28.9,41.4,30.2c38.6,2.3,99.4-8.1,132.2-14.5c0.5-0.1,1.1-0.2,1.6-0.3
		c-5.8,6.3-18,20.9-27.6,42.8c0.1-1.6-0.6-3.1-1.9-3.9c-1.3-0.8-3.1-0.8-4.4-0.1c-1.5,0.8-2.2,2.4-2.1,4c0.1,0.9,0.4,1.7,0.9,2.4
		c0.3,0.3,0.6,0.6,1,0.8c0.4,0.2,0.8,0.3,1.3,0.3c0,0.1,0.1,0.2,0.2,0.3c-0.9,6.3-2.7,12.5-4.7,18.5c-0.1,0.4-0.3,0.7-0.4,1.1
		c0.1-0.8,0.2-1.5,0.2-2.3c0.1-2.3,0.1-4.5-0.1-6.8c-0.3-4.6-1.1-9.1-2.1-13.6c-0.6-2.6-1.2-5.2-1.9-7.7c0-0.1-0.1-0.2-0.2-0.2
		c0,0,0,0,0.1,0c0.1,0,0.1-0.1,0.1-0.2c0.2,0.2,0.6,0.4,0.9,0.1c2-1.3,2.8-3.8,2.1-6.1c-0.6-1.9-2.2-3.4-4.3-3.7
		c-2-0.3-4.1,0.9-5.2,2.6c-1.2,1.9-0.9,4.2,0.4,5.9c0.7,0.9,1.6,1.5,2.6,1.8c1,0.3,1.9,0.2,2.8-0.2c0,0,0,0.1,0,0.1
		c1.9,8.9,3.9,17.8,3.7,27c0,1.2-0.1,2.5-0.2,3.7c-0.1,1.1-0.3,2.3-0.4,3.4c-1.7,4.6-3.6,9.1-5.4,13.7c-1.5,3.8-3.1,7.7-4.5,11.6
		c-1.4,3.9-2.4,7.9-3,12c-0.4,2.7-0.7,5.4-0.8,8.2c-0.3-1.1-0.6-2.1-0.9-3.2c-0.3-1-0.7-2-1-2.9c-0.1-0.4-0.1-0.8-0.2-1.2
		c-0.2-1.8-0.5-3.6-0.5-5.4c-0.2-3.6-0.1-7.3,0.3-10.9c0.1-1.2,0.2-2.4,0.4-3.6c0.3-0.1,0.5-0.3,0.6-0.6c1.8-6.4,3.2-13,3.9-19.7
		c0.3-3.2,0.4-6.4-0.3-9.5c-0.6-2.9-1.7-5.7-2.8-8.5c-1-2.4-2-4.9-2.8-7.4c-0.1-0.8-0.2-1.6-0.3-2.5c-0.1-0.6-1-0.4-1.1,0.1
		c-0.1,1.4-0.3,2.8-0.4,4.2c-0.1,1.5-0.3,3-0.4,4.5c-0.4,3.1-0.8,6.1-1.1,9.2c-0.3,2.8-0.5,5.6-0.1,8.4c0.4,3.2,1.6,6.2,2.4,9.2
		c0.5,1.9,0.9,3.8,1,5.7c0,2-0.3,4.1,0.2,6.1c0,0.2,0.1,0.3,0.2,0.4c-1.1,5.2-1.7,10.6-1.3,15.9c-2.3-5.2-5.2-10.1-8.5-14.8
		c-1.7-2.4-3.5-4.7-5.4-6.9c0-0.1,0.1-0.1,0-0.2c-0.4-2.1-1.3-4.1-2.2-6.1c-0.9-2-1.9-3.9-3-5.7c-2.1-3.6-4.4-7-7-10.2
		c0.2,0,0.3,0,0.5-0.1c2-1.3,2.8-3.8,2.1-6.1c-0.6-1.9-2.2-3.4-4.3-3.7c-2-0.3-4.1,0.9-5.2,2.6c-1.2,1.9-0.9,4.2,0.4,5.9
		c0.7,0.9,1.6,1.5,2.6,1.8c0.5,0.2,1.1,0.2,1.7,0.2c0.6-0.1,1.1-0.3,1.6-0.6c0.1,0,0.1-0.1,0.1-0.1c2.6,3.4,5,7,6.9,10.9
		c1,1.9,1.8,3.8,2.7,5.8c0.7,1.5,1.2,3.1,1.9,4.6c-0.6-0.6-1.2-1.3-1.8-1.9c-3.2-3.3-6.6-6.4-10.4-9c-0.7-0.5-1.4-0.9-2.2-1.3
		c1.2-1.5,1.4-3.5,0.4-5.2c-0.8-1.4-2.4-2.3-4-2.1c-1.7,0.2-3.2,1.4-3.7,3c-0.6,1.7,0.1,3.5,1.5,4.6c0.7,0.6,1.6,0.9,2.5,0.9
		c0.4,0,0.9,0,1.3-0.2c0.4-0.1,0.7-0.4,1-0.7c3.9,2.4,7.3,5.5,10.5,8.7c0.2,0.2,0.3,0.4,0.5,0.5c-1.6-0.9-3.3-1.7-4.9-2.4
		c-3.9-1.6-8.1-2.7-12.3-3.3c0-0.1,0-0.2,0-0.3c-0.1-2.5-2-4.6-4.5-5c-2.2-0.4-4.6,0.6-5.5,2.7c-0.8,1.7-0.6,3.8,0.4,5.4
		c1.1,1.7,3.2,2.4,5.2,2.1c1.1-0.2,2.1-0.6,2.9-1.4c0.8-0.8,1.2-1.8,1.2-3c0-0.1,0-0.1-0.1-0.2c0.1,0,0.2,0,0.2-0.1c0,0,0,0,0,0
		c4.2,0.6,8.4,1.8,12.2,3.6c1.9,0.9,3.7,1.9,5.5,3.1c1,0.6,1.9,1.3,2.8,2c1.6,1.9,3.2,3.8,4.7,5.8c5.1,6.9,9.2,14.4,12,22.5
		c3,8.6,4.5,17.5,4.4,26.5c0,1.6-0.1,3.3-0.2,4.9c-0.6-2.2-1.3-4.4-2.2-6.5c-2-5-4.7-9.5-8-13.7c-1.2-1.5-2.4-2.9-3.7-4.3
		c0-0.2,0-0.3-0.2-0.5c-0.8-1-1.7-1.9-2.7-2.7c-1.9-3.1-2.6-6.8-4.2-10c-1.1-2.2-2.7-4.1-4.5-5.9c-1.9-2-3.8-3.9-5.8-5.8
		c-2.3-2.3-4.5-4.6-6.9-6.9c-0.9-0.9-2,0.4-1.3,1.3c3.4,4.3,4.4,9.8,7.2,14.5c2.6,4.4,6.6,7.8,10.5,11c1.1,0.9,2.3,1.9,3.4,2.8
		c1.1,0.9,2.2,1.9,3.4,2.8c0.2,0.1,0.3,0.1,0.4,0.1c2.7,3.4,5.2,6.9,7.3,10.6c2.4,4.3,4.1,8.9,5.4,13.6c0.5,2,0.8,4,1.2,6
		c-0.7,6.2-1.9,12.3-3.2,18.4c-1.5,6.7-3.3,13.3-5.4,19.8c-0.1-1.5-0.1-3.1-0.2-4.6c-0.3-4.1-0.9-8.1-1.7-12.1
		c-0.4-1.7-0.9-3.3-1.5-4.9c0.1-0.1,0.1-0.2,0-0.4c-0.1-0.5-0.3-0.9-0.5-1.4c-0.2-3.2,0.2-6.5,0.4-9.7c0.1-1.9,0.1-3.7-0.2-5.5
		c-0.3-1.9-0.8-3.7-1.3-5.5c-0.5-1.8-1.1-3.6-2.1-5.2c-0.9-1.5-2.1-2.9-3.2-4.3c-2.1-2.8-4.1-5.7-6-8.7c-2.1-3.5-3.8-7.1-5.2-10.9
		c-0.3-0.9-1.7-0.8-1.8,0.2c-0.1,3.2,0.8,6.3,1.3,9.4c0.5,3.4,1.2,6.8,1.9,10.1c1.6,7.4,3.1,15.1,7.7,21.4c2.5,3.5,6.2,6.3,7.9,10.3
		c0.1,0.2,0.2,0.3,0.3,0.3c0.7,3,1.2,6.1,1.6,9.2c0.2,2.2,0.5,4.3,0.6,6.5c0.1,2.1,0.1,4.1,0.2,6.2c0,1.1,0.1,2.1,0,3.2
		c0,0.6-0.2,1.2-0.3,1.8c-2-8.2-5.3-19.7-10.9-32C258.7,406.2,239.9,377.2,205.9,363.1z M302.3,376.1c-2.1,3.6-3.6,7.4-4.6,11.4
		c-0.4,1.8-0.8,3.5-0.9,5.3c-0.9,1.5-1.8,3.1-2.5,4.7c-0.6,1.2-1.1,2.5-1.6,3.7c-0.1-2.8-0.4-5.5-0.7-8.3c0.3-2.7,0.3-5.5,0.4-8.2
		c0.1-2.6,0.3-5.2,0.6-7.7c0.5-4.1,1.5-8.1,2.7-12c0.6-1.9,1.3-3.7,2-5.6c0.5-0.7,0.9-1.4,1.5-2.1c1.3-1.7,2.8-3.3,4.3-4.9
		c0.2-0.2,0.4-0.3,0.5-0.5c-0.9,6-1.4,12.3-1.6,18.9C302.3,372.7,302.3,374.4,302.3,376.1z M315.2,383.1c0.2,2.7,2.6,5,6.2,5.8
		c4.5,1,11.9,0,20.7-5.8c-2,2.5-4.1,4.8-6.7,6.8c-3,2.3-6.3,4.3-9.5,6.2c-6.1,3.7-12.8,7.4-16.8,13.5c-0.3,0.5-0.7,1-1,1.6
		c-1.5-7.9-2.6-16.6-3.1-26.2c2.2-2.2,4.6-4.2,7.2-5.8c2.8-1.8,5.9-3.4,9.2-4.2C317.3,377.3,315,380.2,315.2,383.1z M302.6,385.2
		c-1.5,1.6-2.9,3.4-4.2,5.3c0.1-0.7,0.3-1.3,0.4-1.9c0.4-1.8,0.9-3.6,1.6-5.3c0.6-1.6,1.3-3.1,2-4.7
		C302.4,380.9,302.5,383.1,302.6,385.2z M302.3,351.7c-1,1-1.9,2-2.8,3c0.1-0.3,0.2-0.6,0.3-0.9c2.3-6.1,4.7-12.1,6.7-18.3
		c2.2-6.6,3.8-13.4,4.4-20.4c0,0,0,0,0,0c1.4,0.1,2.6-0.5,3.5-1.5c-4.4,10.5-8.1,22.6-10.3,36.2C303.6,350.5,303,351,302.3,351.7z
		 M308.2,311.4c-0.2-1.1,0.2-2.5,1.2-3.1c0.9-0.7,2.2-0.7,3.2-0.3c1.1,0.4,1.9,1.6,1.7,2.9c-0.2,1.6-1.6,2.9-3.3,2.8
		c-0.3,0-0.6,0.2-0.7,0.5C309.2,313.5,308.4,312.6,308.2,311.4z M301.3,303.4c0,0-0.1,0-0.1,0c-1.6,0.4-3.3,0.1-4.5-1.1
		c-1.2-1.2-1.7-3.1-0.9-4.6c0.7-1.4,2.2-2.4,3.7-2.5c1.5,0,2.8,0.9,3.4,2.2c0.8,1.7,0.4,3.9-1.3,5
		C301.2,302.7,301.2,303.1,301.3,303.4z M286.3,318c0.2-1.7,0.4-3.3,0.5-5c0-0.1,0-0.2,0-0.3c1.2,4.3,3,8.4,3.9,12.7
		c1.4,6.3,0,12.9-1.2,19.1c-0.3,1.7-0.7,3.4-1.1,5.1c0-1.6-0.3-3.2-0.7-4.8c-0.8-3.2-2.1-6.3-2.6-9.6c-0.4-2.7-0.2-5.5,0-8.1
		C285.5,324.1,286,321.1,286.3,318z M259.5,326.7c-0.4,0.3-0.4,0.7-0.3,1c0,0-0.1,0-0.1,0c-1.6,0.4-3.3,0.1-4.5-1.1
		c-1.2-1.2-1.7-3.1-0.9-4.6c0.7-1.4,2.2-2.4,3.7-2.5c1.5,0,2.8,0.9,3.4,2.2C261.5,323.4,261.1,325.6,259.5,326.7z M255.4,336
		c-0.2,0.2-0.2,0.4-0.2,0.7c-0.1,0.1-0.1,0.2,0,0.3c-1.1,0.5-2.3,0.5-3.4-0.2c-1.1-0.7-1.8-2-1.6-3.2c0.3-1.2,1.3-2.3,2.5-2.6
		c1-0.2,2.1,0.2,2.8,1.1C256.3,333.2,256.4,334.9,255.4,336z M248.5,341.5c0,0-0.1,0.1-0.1,0.1c-0.4,1.6-1.5,2.8-3.1,3.3
		c-1.5,0.4-3.3,0.1-4.3-1.1c-0.9-1.1-1.2-2.7-0.9-4.1c0.4-1.6,1.9-2.7,3.5-2.6c2.1,0,4,1.5,4.1,3.7
		C247.9,341.2,248.2,341.5,248.5,341.5z M271.3,380c-0.2-0.1-0.3-0.3-0.5-0.4c-2-1.6-4-3.3-5.8-5c-1.8-1.7-3.5-3.6-4.8-5.7
		c-1.4-2.3-2.4-4.7-3.4-7.2c-0.3-0.8-0.6-1.6-1-2.3c2.5,2.5,5,4.9,7.5,7.4c1.8,1.8,3.5,3.6,4.8,5.8c1.3,2.2,2,4.7,3.1,7.1
		C271.1,379.7,271.2,379.9,271.3,380z M276.2,428.7c-0.3-0.4-0.6-0.9-0.9-1.3c-1.1-1.5-2.5-2.8-3.8-4.3c-2.5-2.9-4.3-6.3-5.6-9.8
		c-1.3-3.6-2.1-7.4-2.9-11.2c-0.7-3.3-1.4-6.5-1.9-9.9c-0.3-1.7-0.6-3.3-0.9-4.9c2.2,4.6,5,8.9,8.1,12.9c1.1,1.5,2.3,2.9,3.4,4.4
		c1.1,1.5,1.9,3,2.5,4.7c1.2,3.6,2.2,7.2,2.1,11C276.4,423.1,275.9,426,276.2,428.7z M299.2,426.7c-1.7,1.4-3.3,2.9-4.8,4.5
		c-2.4,2.5-4.5,5.3-6.4,8.2c0.1-0.4,0.2-0.8,0.3-1.2c2.2-9.8,4.1-19.8,4.5-29.8c0-0.4,0-0.8,0-1.2c1.6-5.4,3.7-10.6,6.9-15.4
		c0.9-1.4,2-2.7,3-4c0.6,10,1.9,19.1,3.6,27.2c-1.4,3.2-2.7,6.4-4.7,9.3c-0.1,0.2-0.2,0.4-0.1,0.6
		C300.8,425.4,300,426.1,299.2,426.7z M305.3,421.6c0.6-1.2,1.2-2.5,1.7-3.8c0.2,0.8,0.4,1.6,0.6,2.5
		C306.8,420.7,306,421.2,305.3,421.6z M338,395.7c-1.7,4-3.2,8.3-6.5,11.3c-1.5,1.4-3.3,2.4-5,3.4c-1.9,1.2-3.8,2.4-5.7,3.4
		c-3.1,1.7-6.4,3.2-9.6,4.7c-0.4,0.2-0.8,0.4-1.3,0.6c-0.4-1.7-0.8-3.4-1.2-5.1c0.3-0.7,0.7-1.5,1.1-2.2c1.7-3.1,4.2-5.6,7-7.7
		c6-4.5,13-7.6,19-12.1c2.1-1.6,4.2-3.3,6-5.4C340.5,389.7,339.3,392.7,338,395.7z M322,386.5c-2.5-0.6-4.1-1.9-4.2-3.5
		c-0.1-1.5,1.1-3.7,4.7-5.6c-0.3-0.4-0.5-0.8-0.7-1.3c-0.1-0.4-0.1-0.7-0.1-1.1c0.1,0,0.2,0,0.3-0.1c0,0.1,0,0.2,0.1,0.4
		c0.5,1.1,1.3,2,2.3,2.5c1.1,0.6,2.3,0.7,3.5,0.5c2-0.3,3.7-1.8,4.2-3.7c0.2-0.7,0.2-1.5,0-2.2c0.2,0.7,0.3,1.4,0.1,2
		c0,0.1-0.1,0.2-0.1,0.3c0.3,0,0.5,0,0.8,0c4.4,0,8.4,1.4,11.8,3.7C334.8,386,326.6,387.5,322,386.5z M324.5,369.8
		c1.4-0.9,3.2-1.1,4.6-0.1c1.2,0.9,2,2.5,1.8,4c-0.2,1.5-1.3,2.6-2.7,3c-2,0.5-4-0.4-4.8-2.3c-0.1-0.3-0.5-0.4-0.8-0.4
		c0,0,0,0,0-0.1C322.4,372.4,323,370.7,324.5,369.8z M370.7,346.1c-8.3,14.6-16.6,24.4-24,30.6c-4.1-2.9-9.1-4.7-14.7-4.5
		c-0.3-1.2-0.9-2.2-1.8-3c-1.6-1.4-3.8-1.5-5.7-0.6c-1,0.5-1.9,1.3-2.4,2.4c-0.2,0.5-0.4,1-0.4,1.6c-0.1,0.6,0.1,1.1,0.3,1.6
		c0,0.1,0.1,0.1,0.1,0.1c-0.1,0-0.1,0.1-0.1,0.1c0,0-0.1,0-0.1,0c-6.5,0.5-12.3,4.2-17,8.5c-0.1-2.8-0.1-5.7-0.1-8.7
		c0.2-0.3,0.3-0.5,0.5-0.8c1-1.5,2-3,3.2-4.3c0,0,0,0,0,0c1.8,1.7,4.4,1.9,6.4,0.7c1.7-1,2.8-2.9,2.6-4.9c-0.2-2.1-1.8-3.8-3.7-4.6
		c-2.1-0.8-4.3,0.1-5.7,1.8c-0.7,0.9-1.1,1.9-1.2,3c0,0.5,0,1.1,0.2,1.6c0.2,0.6,0.5,1,1,1.4c0,0,0,0,0,0c-1.2,1.3-2.4,2.6-3.4,4.1
		c0-0.4,0-0.8,0-1.2c0.2-7.7,0.9-14.9,2-21.9c2-1.8,4-3.6,6-5.4c0,0,0.1-0.1,0.1-0.1c0.1-0.1,0.2-0.2,0.4-0.3
		c0.8-0.1,1.5-0.4,2.2-0.7c0.7-0.3,1.4-0.7,2.2-1.1c1.5-0.8,2.9-1.7,4.3-2.6c2.8-2,5.4-4.3,7.8-6.8c4.8-5.1,8.6-11,11-17.6
		c1.2-3.5,2-7.2,2.1-10.9c0-0.9-1.2-1.2-1.7-0.5c-3.4,5.6-7.9,10.4-12.1,15.4c-2,2.4-4,4.8-5.7,7.4c-1.9,2.9-3.7,6-5.6,8.9
		c-1,1.7-2.1,3.3-3.3,4.9c-1.1,1.4-2.1,2.9-3.2,4.3c-1.4,1.1-2.8,2.1-4.2,3.3c8.7-49,38.2-78,40.9-80.5c16.1-5.5,28-19.2,31.1-36.3
		l8.8-48.2c0.4,0.7,0.8,1.5,1.2,2.2C406.2,242.1,393.1,306.8,370.7,346.1z M309.1,367.8c-0.1-0.1-0.3-0.1-0.5,0
		c-0.7-1.5-0.8-3.1,0.1-4.5c0.9-1.4,2.6-2.4,4.2-2c1.6,0.4,3,1.6,3.4,3.2c0.3,1.4-0.3,2.8-1.4,3.7c-1.5,1.2-3.8,1.3-5.2-0.1
		C309.5,367.8,309.3,367.8,309.1,367.8z M315.7,340.7c0.9-1.2,1.8-2.4,2.6-3.7c2-3,3.8-6.1,5.8-9.1c3.5-5.5,8.1-10.3,12.3-15.3
		c1.5-1.8,3-3.6,4.4-5.6c-0.7,5.2-2.7,10.2-5.3,14.8c-3.4,5.8-8,11-13.3,15c-1.5,1.1-3,2.1-4.6,3
		C316.9,340.2,316.3,340.4,315.7,340.7z M399.7,227.2c-0.2,0.6-0.4,1.1-0.6,1.7c-0.1-1.2-0.1-2.4-0.2-3.6
		c-0.8-10.9-2.5-23.1-5.8-35.8c2,2.2,4.1,4.4,5.3,7.2c0.1,0.2,0.2,0.3,0.3,0.3c0.7,3,1.2,6.1,1.6,9.2c0.2,2.2,0.5,4.3,0.6,6.5
		c0.1,2.1,0.1,4.1,0.2,6.2c0,1.1,0.1,2.1,0,3.2c0,0.6-0.2,1.2-0.3,1.8C400.5,225,400.1,226.1,399.7,227.2z M459.5,159.7
		c-1.7,4-3.2,8.3-6.5,11.3c-1.5,1.4-3.3,2.4-5,3.4c-1.9,1.2-3.8,2.4-5.7,3.4c-3.1,1.7-6.4,3.2-9.6,4.7c-2,0.9-4,1.9-5.9,3.1
		c1.6-3.2,2.8-6.6,4.5-9.8c1.7-3.1,4.2-5.6,7-7.7c6-4.5,13-7.6,19-12.1c2.1-1.6,4.2-3.3,6-5.4C462,153.7,460.8,156.7,459.5,159.7z"
		/>
</g>
</svg>
